<?xml version="1.0" encoding="UTF-8"?>
<svg version="1.1" xmlns="http://www.w3.org/2000/svg" width="276" height="306">
<path d="M0 0 C1.16613327 -0.00686325 2.33226654 -0.0137265 3.53373718 -0.02079773 C7.34708207 -0.03893604 11.16001036 -0.03524618 14.97338867 -0.02954102 C16.97336079 -0.0329523 18.9733331 -0.03637351 20.97330302 -0.04089409 C27.25047614 -0.0548703 33.52751297 -0.05343699 39.8046875 -0.04199219 C46.23441148 -0.03052674 52.66371754 -0.04457567 59.09338647 -0.07138866 C64.6556655 -0.09369761 70.21781484 -0.10014895 75.78013533 -0.09431225 C79.08374751 -0.09097633 82.3870373 -0.09489259 85.69062233 -0.11056328 C111.32979811 -0.21505667 131.75323276 3.64876585 152.57885742 19.40405273 C153.52631836 20.11303711 154.4737793 20.82202148 155.44995117 21.55249023 C156.50375977 22.46901367 156.50375977 22.46901367 157.57885742 23.40405273 C157.57885742 24.06405273 157.57885742 24.72405273 157.57885742 25.40405273 C158.56885742 25.73405273 159.55885742 26.06405273 160.57885742 26.40405273 C186.80819374 54.77646094 184.86604474 90.82199811 184.44677734 126.87695312 C184.39722639 131.22642542 184.37114379 135.57571129 184.35034657 139.92540264 C184.32977415 143.33441635 184.29183921 146.74308933 184.24948692 150.15189552 C184.23243215 151.75382861 184.22151895 153.35584202 184.21753883 154.95786095 C184.13258748 181.3575757 175.26505281 204.49675229 156.66479492 223.43530273 C149.67940491 230.27634843 142.08576172 235.43880649 133.32885742 239.71655273 C132.69890869 240.03019775 132.06895996 240.34384277 131.41992188 240.66699219 C119.28363162 246.25743068 106.38359973 248.02981642 93.14916992 248.17749023 C91.68830622 248.20709338 90.22746035 248.23758776 88.76663208 248.26889038 C77.26383518 248.48550973 65.76179486 248.37894366 54.25854492 248.25561523 C52.53501437 248.23837052 50.81148328 248.22117899 49.08795166 248.20404053 C47.35835632 248.186214 45.6287624 248.16824914 43.89916992 248.15014648 C43.04266216 248.14129047 42.1861544 248.13243446 41.30369186 248.12331009 C36.89109696 248.07526492 32.4792225 248.01387097 28.06713867 247.9309082 C23.6901655 247.84966884 19.31399009 247.80287611 14.93634415 247.77885056 C13.29604551 247.76354602 11.65580853 247.73574374 10.01595688 247.6945076 C-0.23618956 247.1823632 -0.23618956 247.1823632 -9.13012695 251.60107422 C-10.26077663 252.83881908 -11.36122579 254.10522347 -12.42114258 255.40405273 C-13.37687862 256.35189725 -14.34154606 257.29086769 -15.31713867 258.21826172 C-16.61772217 259.54579468 -16.61772217 259.54579468 -17.94458008 260.90014648 C-18.91190499 261.88008563 -19.87935625 262.85990006 -20.84692383 263.83959961 C-22.33659064 265.35430075 -23.82456575 266.87060377 -25.31030273 268.38916016 C-26.76742701 269.87629656 -28.23056015 271.35730278 -29.69458008 272.83764648 C-30.98501221 274.15333618 -30.98501221 274.15333618 -32.30151367 275.49560547 C-34.42114258 277.40405273 -34.42114258 277.40405273 -36.42114258 277.40405273 C-36.81366211 278.30510742 -36.81366211 278.30510742 -37.21411133 279.22436523 C-38.49537056 281.5380955 -39.6692134 282.65863604 -41.73364258 284.27905273 C-44.19581912 286.28983024 -46.25901065 288.28725531 -48.23364258 290.77905273 C-48.95551758 291.64530273 -49.67739258 292.51155273 -50.42114258 293.40405273 C-51.08114258 293.40405273 -51.74114258 293.40405273 -52.42114258 293.40405273 C-52.42114258 294.06405273 -52.42114258 294.72405273 -52.42114258 295.40405273 C-56.94374582 300.46277004 -61.72724922 303.11545893 -68.58129883 303.53686523 C-74.38684159 303.35762035 -77.56859759 301.24516452 -81.79223633 297.38842773 C-85.73564132 292.58447153 -85.71098573 287.57958906 -85.68856812 281.59635925 C-85.69309923 280.70907821 -85.69763034 279.82179718 -85.70229876 278.90762883 C-85.71496019 275.93397177 -85.71332121 272.96049745 -85.71166992 269.98681641 C-85.71765443 267.85442876 -85.7244598 265.72204327 -85.73202515 263.58966064 C-85.74970895 257.79360116 -85.75438178 251.99760072 -85.75565672 246.20151687 C-85.75707854 242.57594613 -85.76134893 238.95039039 -85.76665115 235.32482338 C-85.78516551 222.6628283 -85.79332078 210.00087535 -85.79174805 197.33886719 C-85.79054912 185.56075239 -85.81159903 173.78282158 -85.84323537 162.00475329 C-85.86946079 151.8779382 -85.88011258 141.75118291 -85.87883723 131.62433416 C-85.87832906 125.58309519 -85.88393089 119.5420194 -85.90519333 113.50081444 C-85.92467901 107.80851618 -85.92462986 102.11653485 -85.91016006 96.42422485 C-85.90808302 94.34589991 -85.9127062 92.26755462 -85.92488098 90.1892643 C-86.0074376 75.10747045 -85.00585978 60.69166478 -77.73364258 47.09155273 C-77.39260498 46.43405029 -77.05156738 45.77654785 -76.70019531 45.09912109 C-73.35746988 38.88621797 -69.20856797 33.58009469 -64.42114258 28.40405273 C-63.74696289 27.63834961 -63.0727832 26.87264648 -62.37817383 26.08374023 C-46.29409459 8.76242413 -23.40424616 -0.09856508 0 0 Z M-26.42114258 33.77905273 C-27.09266357 34.12355469 -27.76418457 34.46805664 -28.45605469 34.82299805 C-42.17157934 42.29915667 -51.26375864 54.78934876 -55.85864258 69.59155273 C-57.07674486 74.27298819 -57.82448602 78.51058384 -57.46411133 83.34155273 C-57.42114258 85.40405273 -57.42114258 85.40405273 -57.91052055 88.12360382 C-58.42988986 91.46024894 -58.54699679 94.57859574 -58.54812622 97.95373535 C-58.55094604 99.25435913 -58.55376587 100.55498291 -58.55667114 101.89501953 C-58.55472702 103.32446303 -58.55267887 104.75390639 -58.55053711 106.18334961 C-58.55189316 107.69844607 -58.55367424 109.21354219 -58.55584717 110.7286377 C-58.56040032 114.83653766 -58.55863981 118.94441246 -58.55546808 123.05231285 C-58.55292985 127.36458782 -58.55528644 131.67686069 -58.55685425 135.98913574 C-58.55867323 143.23877344 -58.55627836 150.48840096 -58.55151367 157.73803711 C-58.546088 166.08917548 -58.54782244 174.44028937 -58.55334008 182.79142714 C-58.55789859 189.98151847 -58.55850792 197.17160249 -58.55590141 204.36169481 C-58.55435153 208.64668712 -58.55410888 212.93166799 -58.5574379 217.21665955 C-58.56035595 221.25501125 -58.55826967 225.2933319 -58.55254364 229.3316803 C-58.55123621 230.80290679 -58.5515752 232.27413595 -58.5538063 233.74536133 C-58.56654863 243.01240989 -58.21034038 252.16906881 -57.42114258 261.40405273 C-52.59112126 257.36768081 -48.0690734 253.15589696 -43.67504883 248.65014648 C-42.41297263 247.37055997 -41.15059359 246.09127208 -39.88793945 244.81225586 C-37.93198737 242.8253777 -35.97848222 240.83626983 -34.03027344 238.84179688 C-32.12710572 236.8959798 -30.21434305 234.96001021 -28.30004883 233.02514648 C-27.72895889 232.43543564 -27.15786896 231.84572479 -26.56947327 231.23814392 C-18.49922533 223.11788388 -11.76694588 220.44958128 -0.3527832 220.27947998 C1.57233962 220.27412754 3.49748154 220.27396828 5.42260742 220.27807617 C6.48072128 220.27620804 7.53883514 220.2743399 8.62901306 220.27241516 C10.91680662 220.26842648 13.20460412 220.26633774 15.49240112 220.26595306 C20.37775959 220.26251314 25.26298786 220.24111715 30.14830017 220.2207222 C39.22787215 220.18285383 48.30730273 220.15143071 57.38696289 220.15356445 C63.71822001 220.15435612 70.04899577 220.13079553 76.38012695 220.09168243 C78.77837962 220.08129152 81.17668831 220.07964681 83.57495117 220.08733368 C104.581798 220.14793106 122.92389613 217.80513254 138.89135742 202.65405273 C149.96844568 190.90131543 155.71817469 177.651343 155.73999023 161.58154297 C155.74495514 160.70275986 155.74992004 159.82397675 155.7550354 158.91856384 C155.76961615 156.01658334 155.77645378 153.11465758 155.78198242 150.21264648 C155.78773916 148.18587748 155.79349682 146.15910848 155.79925537 144.13233948 C155.80975509 139.88135526 155.81560386 135.63038989 155.8190918 131.37939453 C155.82456098 125.95831892 155.84855967 120.53749643 155.87706375 115.1164999 C155.89578355 110.92720335 155.90090078 106.73796649 155.90242767 102.54863167 C155.9054359 100.55174444 155.91340181 98.5548578 155.92661285 96.55801201 C156.01048574 82.90095342 155.58462013 70.6205688 148.64135742 58.46655273 C148.3068457 57.8471582 147.97233398 57.22776367 147.62768555 56.58959961 C145.59413604 52.9025667 143.41408126 49.52339086 140.57885742 46.40405273 C139.91885742 46.40405273 139.25885742 46.40405273 138.57885742 46.40405273 C138.24885742 45.41405273 137.91885742 44.42405273 137.57885742 43.40405273 C124.10966263 32.09501183 110.07094849 28.25079335 92.76342773 28.25878906 C91.70864227 28.25543045 90.65385681 28.25207184 89.56710815 28.24861145 C86.0970541 28.23915085 82.62704856 28.23716075 79.15698242 28.23608398 C76.73093649 28.23286785 74.30489075 28.22950351 71.87884521 28.22599792 C66.79837596 28.22001877 61.71792369 28.21815676 56.63745117 28.21875 C50.15045348 28.21885151 43.6635655 28.20520475 37.17659378 28.18797779 C32.16635647 28.17681957 27.15614537 28.17483197 22.14589691 28.17535973 C19.75547661 28.17418516 17.3650555 28.16979302 14.97464752 28.16202736 C11.62031022 28.15215082 8.26620689 28.1551357 4.91186523 28.16113281 C3.93899567 28.15551331 2.9661261 28.1498938 1.96377563 28.144104 C-7.87326456 28.18844761 -17.59299476 29.20723014 -26.42114258 33.77905273 Z " fill="#2791FC" transform="translate(88.421142578125,2.595947265625)"/>
<path d="M0 0 C2.23654438 -0.00970091 4.47216746 -0.04073334 6.70849609 -0.07226562 C8.13687607 -0.07879678 9.5652626 -0.08404681 10.99365234 -0.08789062 C12.28899902 -0.09723633 13.5843457 -0.10658203 14.91894531 -0.11621094 C19.62672568 0.36912724 22.19866447 1.86613394 25.25146484 5.42773438 C26.74173978 9.15342172 26.83878791 12.5281835 25.37646484 16.24023438 C23.61474609 18.94726562 23.61474609 18.94726562 20.37646484 21.24023438 C16.11033233 21.96007237 11.88260122 21.93971063 7.56396484 21.92773438 C-3.354196 22.00725039 -12.78680359 22.08759084 -21.62353516 29.24023438 C-28.29020192 36.1600657 -28.93421139 44.67214366 -28.92431641 53.85742188 C-28.92860153 54.75461945 -28.93288666 55.65181702 -28.93730164 56.57620239 C-28.94301354 58.46371624 -28.94356852 60.35125208 -28.93920898 62.23876953 C-28.93605161 65.10032346 -28.95953875 67.96083929 -28.98486328 70.82226562 C-28.98713711 72.66731642 -28.98783938 74.51236996 -28.98681641 76.35742188 C-28.99602615 77.19941132 -29.0052359 78.04140076 -29.01472473 78.90890503 C-28.95967985 86.10496674 -27.64980883 92.9113562 -23.87353516 99.11523438 C-17.35044459 105.27593102 -10.61876726 106.3476886 -1.91650391 106.55664062 C-1.19110916 106.57742172 -0.46571442 106.59820282 0.28166199 106.61961365 C2.58400597 106.68465652 4.88645767 106.74378211 7.18896484 106.80273438 C8.75603298 106.84596272 10.32309049 106.88957836 11.89013672 106.93359375 C15.71880421 107.04029106 19.54757934 107.14168407 23.37646484 107.24023438 C23.3583374 106.55388916 23.34020996 105.86754395 23.3215332 105.16040039 C23.30743408 104.25990967 23.29333496 103.35941895 23.27880859 102.43164062 C23.26068115 101.53904541 23.24255371 100.6464502 23.22387695 99.72680664 C23.37646484 97.24023438 23.37646484 97.24023438 24.93896484 94.17773438 C28.22599752 91.56496481 30.18036889 91.09554141 34.37646484 91.24023438 C38.77516677 93.47957354 38.77516677 93.47957354 40.37646484 96.24023438 C40.8843968 100.05239738 40.65651817 103.36616335 40.37646484 107.24023438 C45.65646484 107.24023438 50.93646484 107.24023438 56.37646484 107.24023438 C56.31845703 105.42136719 56.26044922 103.6025 56.20068359 101.72851562 C56.15378357 99.3366142 56.10828368 96.94468502 56.06396484 94.55273438 C56.02207031 93.35455078 55.98017578 92.15636719 55.93701172 90.921875 C55.81574719 82.21508171 55.81574719 82.21508171 57.4765625 79.32763672 C58.83349609 77.97070312 58.83349609 77.97070312 61.37646484 76.24023438 C61.70646484 75.91023438 62.03646484 75.58023438 62.37646484 75.24023438 C65.12646484 74.86523438 65.12646484 74.86523438 68.37646484 75.24023438 C70.94932208 77.41286938 72.86643404 79.22017276 74.37646484 82.24023438 C74.46137984 84.12662557 74.48365785 86.01601952 74.47412109 87.90429688 C74.46928711 89.58652344 74.46928711 89.58652344 74.46435547 91.30273438 C74.45178711 93.06617188 74.45178711 93.06617188 74.43896484 94.86523438 C74.43445313 96.04859375 74.42994141 97.23195313 74.42529297 98.45117188 C74.41347951 101.38090944 74.39700742 104.3105471 74.37646484 107.24023438 C75.97361896 106.79589912 77.5681867 106.34226089 79.16162109 105.88476562 C80.04986572 105.63315674 80.93811035 105.38154785 81.85327148 105.12231445 C86.76238515 103.40614342 89.52329307 100.68180048 92.18896484 96.17773438 C93.80620713 92.17718767 94.501297 88.85065452 94.5534668 84.53857422 C94.56630203 83.61015717 94.57913727 82.68174011 94.59236145 81.72518921 C94.59974838 80.72726349 94.60713531 79.72933777 94.61474609 78.70117188 C94.62685371 77.14712143 94.62685371 77.14712143 94.63920593 75.56167603 C94.65303045 73.36779444 94.66375989 71.17389149 94.67163086 68.97998047 C94.68313184 66.74749402 94.70355357 64.51503467 94.7331543 62.28271484 C94.77605097 59.04701151 94.79203256 55.81212511 94.80224609 52.57617188 C94.82850822 51.09750137 94.82850822 51.09750137 94.8553009 49.58895874 C94.83260679 42.24036369 93.6992241 34.9532503 88.63569641 29.29501343 C82.28074278 23.47173002 75.05074993 21.86644077 66.51708984 22.02929688 C59.14280287 22.75596019 53.31909824 25.74542668 48.37646484 31.24023438 C45.71237411 35.37416828 44.79452596 39.40630324 44.00146484 44.18945312 C43.24175612 46.68224737 42.45457564 47.67810098 40.37646484 49.24023438 C37.3851496 50.16021531 34.49858697 50.43783704 31.37646484 50.24023438 C28.30596607 48.09088523 27.55954855 46.78948549 26.37646484 43.24023438 C25.36253405 32.31970108 27.83704784 24.02757597 34.37646484 15.24023438 C34.97072266 14.43457031 35.56498047 13.62890625 36.17724609 12.79882812 C38.46462872 10.13766361 40.60585374 8.48486304 43.56396484 6.61523438 C44.44439453 6.04546875 45.32482422 5.47570312 46.23193359 4.88867188 C53.72421597 0.96104062 60.39721369 -0.24559337 68.81396484 -0.13476562 C70.12977539 -0.15216797 70.12977539 -0.15216797 71.47216797 -0.16992188 C83.7519672 -0.11562652 94.66242308 4.38986721 103.92724609 12.46289062 C111.35711069 20.14249857 117.44131937 30.66737008 117.5534668 41.546875 C117.57271965 43.17502136 117.57271965 43.17502136 117.59236145 44.83605957 C117.59974838 46.01099976 117.60713531 47.18593994 117.61474609 48.39648438 C117.62281784 49.60912964 117.63088959 50.8217749 117.63920593 52.07116699 C117.65305022 54.64345876 117.66377082 57.21576892 117.67163086 59.78808594 C117.68877512 63.69697683 117.73265209 67.60500687 117.77685547 71.51367188 C117.78698862 74.01626984 117.79550277 76.51887498 117.80224609 79.02148438 C117.81975418 80.18023071 117.83726227 81.33897705 117.8553009 82.53283691 C117.82945986 92.34300323 115.40531604 100.54935324 110.25146484 108.92773438 C109.75388672 109.75660156 109.25630859 110.58546875 108.74365234 111.43945312 C108.29248047 112.03371094 107.84130859 112.62796875 107.37646484 113.24023438 C106.71646484 113.24023438 106.05646484 113.24023438 105.37646484 113.24023438 C105.13798828 113.82804687 104.89951172 114.41585937 104.65380859 115.02148438 C100.78951985 121.73376574 92.10442649 125.07417796 85.11474609 127.51367188 C79.00212422 129.13556584 72.99823739 129.38600434 66.72241211 129.36962891 C65.88567963 129.37138123 65.04894714 129.37313354 64.18685913 129.37493896 C61.43884161 129.37931667 58.6908892 129.37643363 55.94287109 129.37304688 C54.02147916 129.37372115 52.10008732 129.37469221 50.17869568 129.37594604 C46.15826604 129.37741754 42.13785868 129.3752863 38.11743164 129.37060547 C32.97860469 129.36491238 27.83983001 129.36818802 22.70100498 129.37417793 C18.73491527 129.37780161 14.76883782 129.37663659 10.80274773 129.37405014 C8.90862967 129.37338567 7.01451048 129.37419243 5.12039375 129.37652969 C2.46687011 129.3790855 -0.18657039 129.3751744 -2.84008789 129.36962891 C-3.61384262 129.37165314 -4.38759735 129.37367737 -5.18479919 129.37576294 C-10.08240959 129.35691976 -14.77023809 128.89637742 -19.62353516 128.24023438 C-20.61353516 128.24023438 -21.60353516 128.24023438 -22.62353516 128.24023438 C-23.64625346 127.26348094 -24.64276068 126.25909718 -25.62353516 125.24023438 C-27.18653792 124.28931661 -28.77235522 123.37535869 -30.37353516 122.49023438 C-41.55010711 115.84602227 -47.33770377 106.43176529 -50.97680664 94.06739807 C-52.06705834 89.30137966 -52.05141654 84.61810353 -52.02197266 79.74804688 C-52.02484283 78.68085419 -52.02771301 77.6136615 -52.03067017 76.51412964 C-52.03269965 74.27031927 -52.02724848 72.02649075 -52.01464844 69.78271484 C-51.9986115 66.38142566 -52.01451973 62.98133038 -52.03369141 59.58007812 C-52.03170816 57.38606513 -52.0278628 55.19205286 -52.02197266 52.99804688 C-52.02804535 51.99766388 -52.03411804 50.99728088 -52.04037476 49.96658325 C-51.89912722 35.51014575 -47.56970448 22.83423848 -37.62353516 12.24023438 C-31.29454005 6.75366524 -24.56811329 3.69895573 -16.62353516 1.24023438 C-11.30896545 -0.53128886 -5.56605904 0.01463148 0 0 Z " fill="#2791FB" transform="translate(105.62353515625,67.759765625)"/>
<path d="M0 0 C0.84626953 -0.01933594 1.69253906 -0.03867188 2.56445312 -0.05859375 C6.80966606 -0.02535011 9.01366584 0.2553482 12.6015625 2.671875 C15.00115078 6.28559758 15.40931162 9.28101906 15.5 13.5 C15.54189453 14.18191406 15.58378906 14.86382812 15.62695312 15.56640625 C15.85600226 20.91088617 15.54567132 26.42934604 11.8125 30.5625 C8.79683139 31.98656573 6.86083831 32.10600767 3.5625 31.625 C1.1875 29.625 1.1875 29.625 -0.4375 27.625 C-4.50417842 29.82596216 -7.37741868 32.41279539 -10.5625 35.75 C-25.9106495 51.49128588 -25.9106495 51.49128588 -33.375 51.671875 C-40.05265717 50.71069707 -43.71107567 47.09026197 -48.1875 42.34863281 C-49.78774398 40.6528991 -49.78774398 40.6528991 -52.4375 38.625 C-56.24891113 38.60801005 -58.35295097 39.99581188 -61.125 42.5 C-61.70636719 43.01304687 -62.28773437 43.52609375 -62.88671875 44.0546875 C-64.65571469 45.74651457 -64.65571469 45.74651457 -66.4375 48.625 C-67.0975 48.625 -67.7575 48.625 -68.4375 48.625 C-68.685 49.223125 -68.9325 49.82125 -69.1875 50.4375 C-70.67361853 53.03820743 -71.81699839 54.16916577 -74.4375 55.625 C-77.85496063 56.06127157 -79.97415444 55.80401987 -83.1875 54.5625 C-86.39350629 51.80177236 -86.9501076 49.80264911 -87.4375 45.625 C-84.95836535 39.31447544 -80.55442675 35.87535044 -75.4375 31.625 C-73.74933067 29.98011706 -72.08396685 28.31162458 -70.4375 26.625 C-68.89910433 25.05927936 -67.35713833 23.49706237 -65.8125 21.9375 C-65.05710937 21.17050781 -64.30171875 20.40351562 -63.5234375 19.61328125 C-60.56207729 16.7905615 -58.84565883 15.68726152 -54.75 15.0625 C-49.12053587 15.21687287 -46.16685611 18.77301516 -42.4375 22.625 C-41.00119625 24.08451153 -39.56371917 25.54286943 -38.125 27 C-37.48949219 27.66773438 -36.85398438 28.33546875 -36.19921875 29.0234375 C-34.42396971 30.85404557 -34.42396971 30.85404557 -31.4375 31.625 C-29.01971947 29.37619447 -26.60347654 27.12574339 -24.1875 24.875 C-23.16462891 23.92367187 -23.16462891 23.92367187 -22.12109375 22.953125 C-18.83926767 19.89433564 -15.57802669 16.83027982 -12.4375 13.625 C-12.9325 12.635 -12.9325 12.635 -13.4375 11.625 C-13.83103737 8.08316368 -13.70732133 6.1270446 -12.0078125 2.96484375 C-8.21852993 -0.48467032 -4.95494987 -0.11269787 0 0 Z " fill="#2791FC" transform="translate(174.4375,102.375)"/>
<path d="M0 0 C0 3 0 3 -1.8984375 5.04296875 C-2.71570313 5.75066406 -3.53296875 6.45835938 -4.375 7.1875 C-5.18710938 7.90292969 -5.99921875 8.61835938 -6.8359375 9.35546875 C-9 11 -9 11 -11 11 C-11.28875 11.639375 -11.5775 12.27875 -11.875 12.9375 C-13 15 -13 15 -15 16 C-13.76028915 9.64648187 -9.93050501 6.73323132 -5 3 C-2 1.0625 -2 1.0625 0 0 Z " fill="#2188FA" transform="translate(159,121)"/>
<path d="M0 0 C2 3 2 3 1.5390625 6.35546875 C1.23742187 7.62003906 0.93578125 8.88460937 0.625 10.1875 C0.32851562 11.45980469 0.03203125 12.73210937 -0.2734375 14.04296875 C-0.51320313 15.01878906 -0.75296875 15.99460937 -1 17 C-1.99 17 -2.98 17 -4 17 C-3.45018084 10.95198929 -2.09570426 5.69398894 0 0 Z " fill="#3293F7" transform="translate(8,56)"/>
<path d="M0 0 C1 3 1 3 -0.328125 5.6640625 C-1.27945312 7.12972656 -1.27945312 7.12972656 -2.25 8.625 C-2.87390625 9.60726562 -3.4978125 10.58953125 -4.140625 11.6015625 C-6 14 -6 14 -9 15 C-7.68262072 11.41061876 -6.09204262 8.40505503 -3.9375 5.25 C-3.41027344 4.47140625 -2.88304687 3.6928125 -2.33984375 2.890625 C-1 1 -1 1 0 0 Z " fill="#2E8FF4" transform="translate(20,36)"/>
<path d="M0 0 C1.32 0.33 2.64 0.66 4 1 C0.7 4.3 -2.6 7.6 -6 11 C-6.66 10.67 -7.32 10.34 -8 10 C-7.401875 9.443125 -6.80375 8.88625 -6.1875 8.3125 C-4.01074085 6.01135462 -2.55742513 3.74403476 -1 1 C-0.67 0.67 -0.34 0.34 0 0 Z " fill="#2189FA" transform="translate(48,247)"/>
<path d="M0 0 C-2 1 -4 2 -6 3 C-6.639375 3.391875 -7.27875 3.78375 -7.9375 4.1875 C-10.96202448 5.37897934 -13.78835313 5.12352488 -17 5 C-14.15819378 3.10546252 -11.68435185 1.99807186 -8.5 0.8125 C-7.5409375 0.44769531 -6.581875 0.08289063 -5.59375 -0.29296875 C-3 -1 -3 -1 0 0 Z " fill="#3798F7" transform="translate(69,6)"/>
<path d="M0 0 C-8.261959 5.74031891 -8.261959 5.74031891 -13 5 C-9.76220634 1.00037254 -4.97776602 -1.65925534 0 0 Z " fill="#3296F9" transform="translate(163,70)"/>
<path d="M0 0 C0.66 0.33 1.32 0.66 2 1 C-0.31 3.64 -2.62 6.28 -5 9 C-5.99 8.67 -6.98 8.34 -8 8 C-5.36 5.36 -2.72 2.72 0 0 Z " fill="#1F86F8" transform="translate(170,128)"/>
<path d="M0 0 C0.28875 0.61875 0.5775 1.2375 0.875 1.875 C1.93720042 4.13325765 1.93720042 4.13325765 4 6 C6.32275177 6.40047444 8.65739357 6.7397104 11 7 C11 7.33 11 7.66 11 8 C2.42857143 8.28571429 2.42857143 8.28571429 -1 6 C-0.67 4.02 -0.34 2.04 0 0 Z " fill="#1A81F8" transform="translate(134,108)"/>
<path d="M0 0 C0.66 0.33 1.32 0.66 2 1 C1.0409375 1.7425 1.0409375 1.7425 0.0625 2.5 C-2.81515269 5.98806387 -2.70230736 8.53461041 -3 13 C-3.33 13 -3.66 13 -4 13 C-4 9.37 -4 5.74 -4 2 C-2.68 1.34 -1.36 0.68 0 0 Z " fill="#1B81FA" transform="translate(134,161)"/>
<path d="M0 0 C-1 2 -1 2 -4.25 3.125 C-7.37700635 3.85463482 -9.82622905 4.19234975 -13 4 C-11.66666667 3.33333333 -10.33333333 2.66666667 -9 2 C-8.360625 1.62875 -7.72125 1.2575 -7.0625 0.875 C-4.58890178 -0.17440531 -2.66046462 -0.14780359 0 0 Z " fill="#3B95EF" transform="translate(30,302)"/>
<path d="M0 0 C1.32 0.33 2.64 0.66 4 1 C1.69 2.65 -0.62 4.3 -3 6 C-3.66 5.67 -4.32 5.34 -5 5 C-2.75 2.4375 -2.75 2.4375 0 0 Z " fill="#3496F7" transform="translate(233,232)"/>
<path d="M0 0 C1.32 0.33 2.64 0.66 4 1 C1.03 3.475 1.03 3.475 -2 6 C-2.66 5.67 -3.32 5.34 -4 5 C-2.68 3.35 -1.36 1.7 0 0 Z " fill="#2088FA" transform="translate(148,75)"/>
<path d="M0 0 C3.875 1.75 3.875 1.75 5 4 C7.52733235 4.65555119 7.52733235 4.65555119 10 5 C10 5.33 10 5.66 10 6 C6.29706315 6.33663062 4.60465619 6.47736015 1.625 4.125 C0 2 0 2 0 0 Z " fill="#3598FA" transform="translate(174,128)"/>
<path d="M0 0 C0.66 0.33 1.32 0.66 2 1 C-0.57404971 4.86107457 -2.61020259 4.94319692 -7 6 C-4.74259377 3.66475218 -2.7194239 1.81294927 0 0 Z " fill="#3695F4" transform="translate(46,13)"/>
<path d="M0 0 C3.3 0.99 6.6 1.98 10 3 C8.02 3.99 8.02 3.99 6 5 C5.34 4.67 4.68 4.34 4 4 C4 3.34 4 2.68 4 2 C3.01 2.33 2.02 2.66 1 3 C0.67 2.01 0.34 1.02 0 0 Z " fill="#379AF8" transform="translate(212,7)"/>
<path d="M0 0 C4 1 4 1 4 1 Z " fill="#3C9DFA" transform="translate(131,198)"/>
<path d="M0 0 C3 1 3 1 3 1 Z " fill="#3B9CFA" transform="translate(116,198)"/>
<path d="M0 0 C3 1 3 1 3 1 Z " fill="#3E9EF9" transform="translate(90,197)"/>
<path d="" fill="#409DF8" transform="translate(0,0)"/>
<path d="" fill="#4999E9" transform="translate(0,0)"/>
<path d="M0 0 C2 1 2 1 2 1 Z " fill="#3C9CFA" transform="translate(171,198)"/>
<path d="M0 0 C2 1 2 1 2 1 Z " fill="#3A9CF9" transform="translate(166,198)"/>
<path d="M0 0 C2 1 2 1 2 1 Z " fill="#3C9DF9" transform="translate(147,198)"/>
<path d="M0 0 C2 1 2 1 2 1 Z " fill="#3A9CF9" transform="translate(139,198)"/>
<path d="M0 0 C2 1 2 1 2 1 Z " fill="#3B9DF9" transform="translate(122,198)"/>
<path d="M0 0 C2 1 2 1 2 1 Z " fill="#3A9BFA" transform="translate(110,198)"/>
<path d="" fill="#44A1F5" transform="translate(0,0)"/>
<path d="" fill="#3C9BF8" transform="translate(0,0)"/>
<path d="" fill="#409FF8" transform="translate(0,0)"/>
<path d="" fill="#3F9DF6" transform="translate(0,0)"/>
<path d="" fill="#409EF8" transform="translate(0,0)"/>
<path d="" fill="#419EF8" transform="translate(0,0)"/>
<path d="" fill="#409EFA" transform="translate(0,0)"/>
<path d="" fill="#3D9FFB" transform="translate(0,0)"/>
<path d="" fill="#419FF7" transform="translate(0,0)"/>
<path d="M0 0 C2 1 2 1 2 1 Z " fill="#4899E3" transform="translate(28,24)"/>
<path d="M0 0 C2 1 2 1 2 1 Z " fill="#4C9CE7" transform="translate(52,8)"/>
<path d="" fill="#489BEC" transform="translate(0,0)"/>
<path d="" fill="#4D90D2" transform="translate(0,0)"/>
<path d="" fill="#4D91D2" transform="translate(0,0)"/>
<path d="" fill="#499BEA" transform="translate(0,0)"/>
<path d="" fill="#479CEA" transform="translate(0,0)"/>
<path d="" fill="#449AEB" transform="translate(0,0)"/>
<path d="" fill="#469CEA" transform="translate(0,0)"/>
<path d="" fill="#42A0F9" transform="translate(0,0)"/>
<path d="" fill="#409FFA" transform="translate(0,0)"/>
<path d="" fill="#419FF7" transform="translate(0,0)"/>
<path d="" fill="#409EFA" transform="translate(0,0)"/>
<path d="" fill="#44A0F6" transform="translate(0,0)"/>
<path d="" fill="#3B9CF9" transform="translate(0,0)"/>
<path d="" fill="#3D9DF8" transform="translate(0,0)"/>
<path d="" fill="#3D9DF8" transform="translate(0,0)"/>
<path d="" fill="#3A9CF9" transform="translate(0,0)"/>
<path d="" fill="#399CF8" transform="translate(0,0)"/>
<path d="" fill="#3D9CF9" transform="translate(0,0)"/>
<path d="" fill="#3D9CF8" transform="translate(0,0)"/>
<path d="" fill="#3C9DFA" transform="translate(0,0)"/>
<path d="" fill="#3F9DF9" transform="translate(0,0)"/>
<path d="" fill="#409FF7" transform="translate(0,0)"/>
<path d="" fill="#419DF6" transform="translate(0,0)"/>
<path d="" fill="#3D9DF6" transform="translate(0,0)"/>
<path d="" fill="#3E9DF7" transform="translate(0,0)"/>
<path d="" fill="#3F9FFB" transform="translate(0,0)"/>
<path d="" fill="#42A0F8" transform="translate(0,0)"/>
<path d="" fill="#3E9BFA" transform="translate(0,0)"/>
<path d="" fill="#419FF9" transform="translate(0,0)"/>
<path d="" fill="#409DFA" transform="translate(0,0)"/>
<path d="" fill="#3F9EF9" transform="translate(0,0)"/>
<path d="" fill="#44A0F9" transform="translate(0,0)"/>
<path d="" fill="#419FF9" transform="translate(0,0)"/>
<path d="" fill="#429EF7" transform="translate(0,0)"/>
<path d="" fill="#3F9EF7" transform="translate(0,0)"/>
<path d="" fill="#439FF6" transform="translate(0,0)"/>
<path d="" fill="#40A0FB" transform="translate(0,0)"/>
<path d="" fill="#3F9DF6" transform="translate(0,0)"/>
<path d="" fill="#419FFA" transform="translate(0,0)"/>
<path d="" fill="#3F9FF9" transform="translate(0,0)"/>
<path d="" fill="#40A1FC" transform="translate(0,0)"/>
<path d="" fill="#41A0FA" transform="translate(0,0)"/>
<path d="" fill="#43A0FE" transform="translate(0,0)"/>
<path d="" fill="#42A2F7" transform="translate(0,0)"/>
<path d="" fill="#3F9DF7" transform="translate(0,0)"/>
<path d="" fill="#419EF8" transform="translate(0,0)"/>
<path d="" fill="#409FF9" transform="translate(0,0)"/>
<path d="" fill="#3F9DF7" transform="translate(0,0)"/>
<path d="" fill="#3F9FFD" transform="translate(0,0)"/>
<path d="" fill="#3F9EFC" transform="translate(0,0)"/>
<path d="" fill="#409FF6" transform="translate(0,0)"/>
<path d="" fill="#409EF7" transform="translate(0,0)"/>
<path d="" fill="#44A1FB" transform="translate(0,0)"/>
<path d="" fill="#3C9DFA" transform="translate(0,0)"/>
<path d="" fill="#419FFA" transform="translate(0,0)"/>
<path d="" fill="#44A1F9" transform="translate(0,0)"/>
<path d="" fill="#41A0F8" transform="translate(0,0)"/>
<path d="" fill="#42A1FA" transform="translate(0,0)"/>
<path d="" fill="#3F9FFB" transform="translate(0,0)"/>
<path d="" fill="#409EFC" transform="translate(0,0)"/>
<path d="" fill="#42A1FB" transform="translate(0,0)"/>
<path d="" fill="#40A0F8" transform="translate(0,0)"/>
<path d="" fill="#419FFB" transform="translate(0,0)"/>
<path d="" fill="#409CFC" transform="translate(0,0)"/>
<path d="" fill="#3E9FF9" transform="translate(0,0)"/>
<path d="" fill="#409EF9" transform="translate(0,0)"/>
<path d="" fill="#409DF6" transform="translate(0,0)"/>
<path d="" fill="#3E9CF8" transform="translate(0,0)"/>
<path d="" fill="#429FF4" transform="translate(0,0)"/>
<path d="" fill="#409FFA" transform="translate(0,0)"/>
<path d="" fill="#3F9CF8" transform="translate(0,0)"/>
<path d="" fill="#43A0FA" transform="translate(0,0)"/>
<path d="" fill="#449FF8" transform="translate(0,0)"/>
<path d="" fill="#449FF9" transform="translate(0,0)"/>
<path d="" fill="#3F9CF5" transform="translate(0,0)"/>
<path d="" fill="#3C9AF6" transform="translate(0,0)"/>
<path d="" fill="#3F9CF7" transform="translate(0,0)"/>
<path d="" fill="#469EF1" transform="translate(0,0)"/>
<path d="" fill="#429CF8" transform="translate(0,0)"/>
<path d="" fill="#409DFB" transform="translate(0,0)"/>
<path d="" fill="#4997E0" transform="translate(0,0)"/>
<path d="" fill="#43A0F9" transform="translate(0,0)"/>
<path d="" fill="#49A0EF" transform="translate(0,0)"/>
<path d="" fill="#459DF0" transform="translate(0,0)"/>
<path d="" fill="#489BEC" transform="translate(0,0)"/>
<path d="" fill="#4C9BEA" transform="translate(0,0)"/>
<path d="" fill="#479AEA" transform="translate(0,0)"/>
<path d="" fill="#479CEA" transform="translate(0,0)"/>
<path d="" fill="#489BEB" transform="translate(0,0)"/>
<path d="" fill="#489CEB" transform="translate(0,0)"/>
<path d="" fill="#4B9DEC" transform="translate(0,0)"/>
<path d="" fill="#469BED" transform="translate(0,0)"/>
</svg>
