<?xml version="1.0" encoding="UTF-8"?>
<svg version="1.1" xmlns="http://www.w3.org/2000/svg" width="743" height="306">
<path d="M0 0 C1.16613327 -0.00686325 2.33226654 -0.0137265 3.53373718 -0.02079773 C7.34708207 -0.03893604 11.16001036 -0.03524618 14.97338867 -0.02954102 C16.97336079 -0.0329523 18.9733331 -0.03637351 20.97330302 -0.04089409 C27.25047614 -0.0548703 33.52751297 -0.05343699 39.8046875 -0.04199219 C46.23441148 -0.03052674 52.66371754 -0.04457567 59.09338647 -0.07138866 C64.6556655 -0.09369761 70.21781484 -0.10014895 75.78013533 -0.09431225 C79.08374751 -0.09097633 82.3870373 -0.09489259 85.69062233 -0.11056328 C111.32979811 -0.21505667 131.75323276 3.64876585 152.57885742 19.40405273 C153.52631836 20.11303711 154.4737793 20.82202148 155.44995117 21.55249023 C156.50375977 22.46901367 156.50375977 22.46901367 157.57885742 23.40405273 C157.57885742 24.06405273 157.57885742 24.72405273 157.57885742 25.40405273 C158.56885742 25.73405273 159.55885742 26.06405273 160.57885742 26.40405273 C186.80819374 54.77646094 184.86604474 90.82199811 184.44677734 126.87695312 C184.39722639 131.22642542 184.37114379 135.57571129 184.35034657 139.92540264 C184.32977415 143.33441635 184.29183921 146.74308933 184.24948692 150.15189552 C184.23243215 151.75382861 184.22151895 153.35584202 184.21753883 154.95786095 C184.13258748 181.3575757 175.26505281 204.49675229 156.66479492 223.43530273 C149.67940491 230.27634843 142.08576172 235.43880649 133.32885742 239.71655273 C132.69890869 240.03019775 132.06895996 240.34384277 131.41992188 240.66699219 C119.28363162 246.25743068 106.38359973 248.02981642 93.14916992 248.17749023 C91.68830622 248.20709338 90.22746035 248.23758776 88.76663208 248.26889038 C77.26383518 248.48550973 65.76179486 248.37894366 54.25854492 248.25561523 C52.53501437 248.23837052 50.81148328 248.22117899 49.08795166 248.20404053 C47.35835632 248.186214 45.6287624 248.16824914 43.89916992 248.15014648 C43.04266216 248.14129047 42.1861544 248.13243446 41.30369186 248.12331009 C36.89109696 248.07526492 32.4792225 248.01387097 28.06713867 247.9309082 C23.6901655 247.84966884 19.31399009 247.80287611 14.93634415 247.77885056 C13.29604551 247.76354602 11.65580853 247.73574374 10.01595688 247.6945076 C-0.23618956 247.1823632 -0.23618956 247.1823632 -9.13012695 251.60107422 C-10.26077663 252.83881908 -11.36122579 254.10522347 -12.42114258 255.40405273 C-13.37687862 256.35189725 -14.34154606 257.29086769 -15.31713867 258.21826172 C-16.61772217 259.54579468 -16.61772217 259.54579468 -17.94458008 260.90014648 C-18.91190499 261.88008563 -19.87935625 262.85990006 -20.84692383 263.83959961 C-22.33659064 265.35430075 -23.82456575 266.87060377 -25.31030273 268.38916016 C-26.76742701 269.87629656 -28.23056015 271.35730278 -29.69458008 272.83764648 C-30.98501221 274.15333618 -30.98501221 274.15333618 -32.30151367 275.49560547 C-34.42114258 277.40405273 -34.42114258 277.40405273 -36.42114258 277.40405273 C-36.81366211 278.30510742 -36.81366211 278.30510742 -37.21411133 279.22436523 C-38.49537056 281.5380955 -39.6692134 282.65863604 -41.73364258 284.27905273 C-44.19581912 286.28983024 -46.25901065 288.28725531 -48.23364258 290.77905273 C-48.95551758 291.64530273 -49.67739258 292.51155273 -50.42114258 293.40405273 C-51.08114258 293.40405273 -51.74114258 293.40405273 -52.42114258 293.40405273 C-52.42114258 294.06405273 -52.42114258 294.72405273 -52.42114258 295.40405273 C-56.94374582 300.46277004 -61.72724922 303.11545893 -68.58129883 303.53686523 C-74.38684159 303.35762035 -77.56859759 301.24516452 -81.79223633 297.38842773 C-85.73564132 292.58447153 -85.71098573 287.57958906 -85.68856812 281.59635925 C-85.69309923 280.70907821 -85.69763034 279.82179718 -85.70229876 278.90762883 C-85.71496019 275.93397177 -85.71332121 272.96049745 -85.71166992 269.98681641 C-85.71765443 267.85442876 -85.7244598 265.72204327 -85.73202515 263.58966064 C-85.74970895 257.79360116 -85.75438178 251.99760072 -85.75565672 246.20151687 C-85.75707854 242.57594613 -85.76134893 238.95039039 -85.76665115 235.32482338 C-85.78516551 222.6628283 -85.79332078 210.00087535 -85.79174805 197.33886719 C-85.79054912 185.56075239 -85.81159903 173.78282158 -85.84323537 162.00475329 C-85.86946079 151.8779382 -85.88011258 141.75118291 -85.87883723 131.62433416 C-85.87832906 125.58309519 -85.88393089 119.5420194 -85.90519333 113.50081444 C-85.92467901 107.80851618 -85.92462986 102.11653485 -85.91016006 96.42422485 C-85.90808302 94.34589991 -85.9127062 92.26755462 -85.92488098 90.1892643 C-86.0074376 75.10747045 -85.00585978 60.69166478 -77.73364258 47.09155273 C-77.39260498 46.43405029 -77.05156738 45.77654785 -76.70019531 45.09912109 C-73.35746988 38.88621797 -69.20856797 33.58009469 -64.42114258 28.40405273 C-63.74696289 27.63834961 -63.0727832 26.87264648 -62.37817383 26.08374023 C-46.29409459 8.76242413 -23.40424616 -0.09856508 0 0 Z M-26.42114258 33.77905273 C-27.09266357 34.12355469 -27.76418457 34.46805664 -28.45605469 34.82299805 C-42.17157934 42.29915667 -51.26375864 54.78934876 -55.85864258 69.59155273 C-57.07674486 74.27298819 -57.82448602 78.51058384 -57.46411133 83.34155273 C-57.42114258 85.40405273 -57.42114258 85.40405273 -57.91052055 88.12360382 C-58.42988986 91.46024894 -58.54699679 94.57859574 -58.54812622 97.95373535 C-58.55094604 99.25435913 -58.55376587 100.55498291 -58.55667114 101.89501953 C-58.55472702 103.32446303 -58.55267887 104.75390639 -58.55053711 106.18334961 C-58.55189316 107.69844607 -58.55367424 109.21354219 -58.55584717 110.7286377 C-58.56040032 114.83653766 -58.55863981 118.94441246 -58.55546808 123.05231285 C-58.55292985 127.36458782 -58.55528644 131.67686069 -58.55685425 135.98913574 C-58.55867323 143.23877344 -58.55627836 150.48840096 -58.55151367 157.73803711 C-58.546088 166.08917548 -58.54782244 174.44028937 -58.55334008 182.79142714 C-58.55789859 189.98151847 -58.55850792 197.17160249 -58.55590141 204.36169481 C-58.55435153 208.64668712 -58.55410888 212.93166799 -58.5574379 217.21665955 C-58.56035595 221.25501125 -58.55826967 225.2933319 -58.55254364 229.3316803 C-58.55123621 230.80290679 -58.5515752 232.27413595 -58.5538063 233.74536133 C-58.56654863 243.01240989 -58.21034038 252.16906881 -57.42114258 261.40405273 C-52.59112126 257.36768081 -48.0690734 253.15589696 -43.67504883 248.65014648 C-42.41297263 247.37055997 -41.15059359 246.09127208 -39.88793945 244.81225586 C-37.93198737 242.8253777 -35.97848222 240.83626983 -34.03027344 238.84179688 C-32.12710572 236.8959798 -30.21434305 234.96001021 -28.30004883 233.02514648 C-27.72895889 232.43543564 -27.15786896 231.84572479 -26.56947327 231.23814392 C-18.49922533 223.11788388 -11.76694588 220.44958128 -0.3527832 220.27947998 C1.57233962 220.27412754 3.49748154 220.27396828 5.42260742 220.27807617 C6.48072128 220.27620804 7.53883514 220.2743399 8.62901306 220.27241516 C10.91680662 220.26842648 13.20460412 220.26633774 15.49240112 220.26595306 C20.37775959 220.26251314 25.26298786 220.24111715 30.14830017 220.2207222 C39.22787215 220.18285383 48.30730273 220.15143071 57.38696289 220.15356445 C63.71822001 220.15435612 70.04899577 220.13079553 76.38012695 220.09168243 C78.77837962 220.08129152 81.17668831 220.07964681 83.57495117 220.08733368 C104.581798 220.14793106 122.92389613 217.80513254 138.89135742 202.65405273 C149.96844568 190.90131543 155.71817469 177.651343 155.73999023 161.58154297 C155.74495514 160.70275986 155.74992004 159.82397675 155.7550354 158.91856384 C155.76961615 156.01658334 155.77645378 153.11465758 155.78198242 150.21264648 C155.78773916 148.18587748 155.79349682 146.15910848 155.79925537 144.13233948 C155.80975509 139.88135526 155.81560386 135.63038989 155.8190918 131.37939453 C155.82456098 125.95831892 155.84855967 120.53749643 155.87706375 115.1164999 C155.89578355 110.92720335 155.90090078 106.73796649 155.90242767 102.54863167 C155.9054359 100.55174444 155.91340181 98.5548578 155.92661285 96.55801201 C156.01048574 82.90095342 155.58462013 70.6205688 148.64135742 58.46655273 C148.3068457 57.8471582 147.97233398 57.22776367 147.62768555 56.58959961 C145.59413604 52.9025667 143.41408126 49.52339086 140.57885742 46.40405273 C139.91885742 46.40405273 139.25885742 46.40405273 138.57885742 46.40405273 C138.24885742 45.41405273 137.91885742 44.42405273 137.57885742 43.40405273 C124.10966263 32.09501183 110.07094849 28.25079335 92.76342773 28.25878906 C91.70864227 28.25543045 90.65385681 28.25207184 89.56710815 28.24861145 C86.0970541 28.23915085 82.62704856 28.23716075 79.15698242 28.23608398 C76.73093649 28.23286785 74.30489075 28.22950351 71.87884521 28.22599792 C66.79837596 28.22001877 61.71792369 28.21815676 56.63745117 28.21875 C50.15045348 28.21885151 43.6635655 28.20520475 37.17659378 28.18797779 C32.16635647 28.17681957 27.15614537 28.17483197 22.14589691 28.17535973 C19.75547661 28.17418516 17.3650555 28.16979302 14.97464752 28.16202736 C11.62031022 28.15215082 8.26620689 28.1551357 4.91186523 28.16113281 C3.93899567 28.15551331 2.9661261 28.1498938 1.96377563 28.144104 C-7.87326456 28.18844761 -17.59299476 29.20723014 -26.42114258 33.77905273 Z " fill="#2791FC" transform="translate(88.421142578125,2.595947265625)"/>
<path d="M0 0 C0.83063965 0.01256836 1.6612793 0.02513672 2.51708984 0.03808594 C12.922832 0.23280863 22.2292551 1.05154829 32 5 C32.87914062 5.34933594 33.75828125 5.69867188 34.6640625 6.05859375 C46.71233946 11.44861239 55.5778036 21.15509476 60.31640625 33.40234375 C65.10915248 49.04974173 64.78155764 65.95290128 57.3125 80.6875 C49.30866887 94.36892562 37.5894107 102.62816366 22.31640625 106.71875 C14.64054406 108.26989006 6.80451428 108.5997685 -1 109 C-1 109.33 -1 109.66 -1 110 C-3.31 110 -5.62 110 -8 110 C-8 109.67 -8 109.34 -8 109 C-14.6 108.67 -21.2 108.34 -28 108 C-28 125.16 -28 142.32 -28 160 C-39.22 160 -50.44 160 -62 160 C-62.1306284 140.30255765 -62.26106502 120.60511405 -62.39115143 100.90766811 C-62.45156025 91.76160538 -62.51205527 82.61554324 -62.57275391 73.46948242 C-62.62566465 65.49686564 -62.67841297 57.52424779 -62.73096704 49.55162865 C-62.758794 45.33104853 -62.78670175 41.11046897 -62.81480408 36.88989067 C-62.84126893 32.91485281 -62.86751608 28.93981357 -62.89359856 24.96477318 C-62.90319293 23.50834857 -62.91286585 22.05192447 -62.92262459 20.59550095 C-62.9359761 18.60109853 -62.94901303 16.60669402 -62.96203613 14.61228943 C-62.96941048 13.49784171 -62.97678482 12.38339399 -62.98438263 11.23517513 C-63.00085251 7.82340135 -63.00262262 4.41180818 -63 1 C-14.92206515 -0.29252849 -14.92206515 -0.29252849 0 0 Z M-28 32 C-28 47.18 -28 62.36 -28 78 C-23.441875 78.020625 -18.88375 78.04125 -14.1875 78.0625 C-12.06671021 78.07615601 -12.06671021 78.07615601 -9.90307617 78.09008789 C8.12633991 78.41290762 8.12633991 78.41290762 23.875 70.6875 C29.53358018 63.53106036 29.79110246 56.9281563 29 48 C27.97471997 42.47152925 24.45679162 39.12757337 20.42578125 35.48046875 C14.42866054 31.82039025 7.72418873 31.71520029 0.90625 31.8046875 C0.16729492 31.80670166 -0.57166016 31.80871582 -1.33300781 31.81079102 C-4.055403 31.82114126 -6.7777087 31.84906249 -9.5 31.875 C-15.605 31.91625 -21.71 31.9575 -28 32 Z " fill="#2892FC" transform="translate(394,8)"/>
<path d="M0 0 C0.78674103 -0.00095673 1.57348206 -0.00191345 2.38406372 -0.00289917 C4.05015137 -0.00358024 5.71624166 -0.00173102 7.38232422 0.00244141 C9.92812096 0.00777647 12.47374012 0.00250136 15.01953125 -0.00390625 C16.63802122 -0.00324518 18.25651108 -0.00196341 19.875 0 C21.01580521 -0.00303635 21.01580521 -0.00303635 22.17965698 -0.00613403 C29.35141154 0.02552823 29.35141154 0.02552823 32.0703125 1.1328125 C33.7890625 3.66015625 33.7890625 3.66015625 35.5703125 7.0703125 C38.70418712 12.86617429 42.12174532 18.36806282 45.8203125 23.8203125 C50.82172235 31.19414489 55.60523384 38.67992675 60.23730469 46.29174805 C60.71071289 47.05656494 61.18412109 47.82138184 61.671875 48.609375 C62.08775879 49.29080566 62.50364258 49.97223633 62.93212891 50.67431641 C63.30772949 51.15562012 63.68333008 51.63692383 64.0703125 52.1328125 C64.7303125 52.1328125 65.3903125 52.1328125 66.0703125 52.1328125 C67.2301696 50.71841762 67.2301696 50.71841762 68.328125 48.8203125 C68.7811499 48.08594971 69.2341748 47.35158691 69.70092773 46.5949707 C70.44064819 45.37620239 70.44064819 45.37620239 71.1953125 44.1328125 C76.78522721 35.08981662 82.61879041 26.23094212 88.54931641 17.40820312 C89.19433105 16.44720703 89.8393457 15.48621094 90.50390625 14.49609375 C91.12249512 13.58424316 91.74108398 12.67239258 92.37841797 11.73291016 C94.29979293 8.78014777 95.98282682 5.73276787 97.55883789 2.58276367 C101.46326518 -1.16273684 108.83759579 -0.00349519 113.97265625 0.03515625 C114.6952211 0.0365712 115.41778595 0.03798615 116.1622467 0.03944397 C118.44414615 0.04499025 120.72594329 0.0575323 123.0078125 0.0703125 C124.56575378 0.07533446 126.12369662 0.07989614 127.68164062 0.08398438 C131.47790331 0.094942 135.27409063 0.11216878 139.0703125 0.1328125 C138.23356778 3.96916953 136.67078885 6.50122742 134.4453125 9.7578125 C133.79304687 10.71945313 133.14078125 11.68109375 132.46875 12.671875 C130.57718523 15.41398137 128.66346793 18.14033463 126.75 20.8671875 C123.05972227 26.13237895 119.43482297 31.44043013 115.8203125 36.7578125 C111.29024877 43.41165889 106.75620764 50.06255232 102.1953125 56.6953125 C101.75944824 57.32993408 101.32358398 57.96455566 100.87451172 58.6184082 C98.7403328 61.72182298 96.5945396 64.81632955 94.4296875 67.8984375 C94.01058105 68.49712646 93.59147461 69.09581543 93.15966797 69.71264648 C92.02609192 71.33005486 90.88820944 72.94444265 89.75 74.55859375 C87.94430291 77.08820252 87.94430291 77.08820252 87.0703125 80.1328125 C88.21571462 82.42840499 88.21571462 82.42840499 90.0703125 84.9453125 C90.80507813 86.0075 91.53984375 87.0696875 92.296875 88.1640625 C92.72774414 88.77894531 93.15861328 89.39382812 93.60253906 90.02734375 C96.58675831 94.30810003 99.50835365 98.6320674 102.4453125 102.9453125 C103.42709473 104.3828186 103.42709473 104.3828186 104.42871094 105.84936523 C108.09192476 111.2142686 111.7302369 116.59371729 115.3203125 122.0078125 C118.7133309 127.12224234 122.15384363 132.20143043 125.6328125 137.2578125 C126.08793213 137.91974609 126.54305176 138.58167969 127.01196289 139.26367188 C129.24689518 142.50778638 131.4949189 145.74175066 133.765625 148.9609375 C134.18642334 149.56019043 134.60722168 150.15944336 135.04077148 150.77685547 C136.18619855 152.40595836 137.33706131 154.03123552 138.48828125 155.65625 C140.0703125 158.1328125 140.0703125 158.1328125 140.0703125 160.1328125 C107.10939324 163.40398124 107.10939324 163.40398124 98.1875 158.57128906 C93.61214474 154.13088108 91.32895712 148.41896944 88.81054688 142.65332031 C85.616927 136.19260221 81.31186798 130.43436888 77.1729126 124.55178833 C74.80750478 121.17964833 72.4848382 117.7793352 70.171875 114.37109375 C69.757099 113.76989716 69.342323 113.16870056 68.91497803 112.54928589 C66.0703125 108.361395 66.0703125 108.361395 66.0703125 106.1328125 C65.4103125 106.1328125 64.7503125 106.1328125 64.0703125 106.1328125 C63.85117187 106.79410156 63.63203125 107.45539063 63.40625 108.13671875 C61.23719865 113.00122866 58.07482051 117.17978306 54.94287109 121.47192383 C51.58734596 126.15609692 48.65583397 130.80838273 46.14389038 135.98500061 C35.44831051 157.87896334 35.44831051 157.87896334 26.81408691 160.93011475 C14.85505693 163.55410325 2.05428921 161.88144723 -9.9296875 160.1328125 C-8.46678972 156.00621575 -6.43452677 152.68908658 -3.96484375 149.08203125 C-3.5759346 148.51122833 -3.18702545 147.94042542 -2.78633118 147.35232544 C-1.52615631 145.50517113 -0.25927088 143.66273296 1.0078125 141.8203125 C1.88436295 140.53828556 2.76050027 139.25597605 3.63623047 137.97338867 C6.10828172 134.35574638 8.58831007 130.7436317 11.0703125 127.1328125 C11.63024902 126.3171582 12.19018555 125.50150391 12.76708984 124.66113281 C14.48034224 122.16578218 16.19513084 119.67149919 17.91210938 117.17871094 C21.9046372 111.38121497 25.88485776 105.57531346 29.85296631 99.76107788 C30.9784404 98.11331504 32.1066162 96.46739858 33.23486328 94.8215332 C34.2806958 93.28758911 34.2806958 93.28758911 35.34765625 91.72265625 C35.96890381 90.81378662 36.59015137 89.90491699 37.23022461 88.96850586 C39.31533222 85.75522141 41.19648943 82.47328587 43.0703125 79.1328125 C42.51682129 78.30257568 41.96333008 77.47233887 41.39306641 76.61694336 C31.05859375 61.11523437 31.05859375 61.11523437 29.74383545 59.14305115 C28.85460944 57.80924292 27.96532621 56.47547283 27.07598877 55.14173889 C24.90318293 51.88304646 22.73121262 48.62380563 20.56152344 45.36303711 C14.89052541 36.84274525 9.18837426 28.34397224 3.45361328 19.86645508 C2.5161205 18.47974012 1.57962775 17.09234866 0.64404297 15.7043457 C-0.73256994 13.66212556 -2.11203356 11.62185944 -3.4921875 9.58203125 C-3.90984375 8.96132248 -4.3275 8.34061371 -4.7578125 7.70109558 C-6.36594063 5.33007912 -7.89861984 3.16388016 -9.9296875 1.1328125 C-6.79237463 -0.43584393 -3.44324553 -0.00911595 0 0 Z " fill="#2892FB" transform="translate(600.9296875,7.8671875)"/>
<path d="M0 0 C2.23654438 -0.00970091 4.47216746 -0.04073334 6.70849609 -0.07226562 C8.13687607 -0.07879678 9.5652626 -0.08404681 10.99365234 -0.08789062 C12.28899902 -0.09723633 13.5843457 -0.10658203 14.91894531 -0.11621094 C19.62672568 0.36912724 22.19866447 1.86613394 25.25146484 5.42773438 C26.74173978 9.15342172 26.83878791 12.5281835 25.37646484 16.24023438 C23.61474609 18.94726562 23.61474609 18.94726562 20.37646484 21.24023438 C16.11033233 21.96007237 11.88260122 21.93971063 7.56396484 21.92773438 C-3.354196 22.00725039 -12.78680359 22.08759084 -21.62353516 29.24023438 C-28.29020192 36.1600657 -28.93421139 44.67214366 -28.92431641 53.85742188 C-28.92860153 54.75461945 -28.93288666 55.65181702 -28.93730164 56.57620239 C-28.94301354 58.46371624 -28.94356852 60.35125208 -28.93920898 62.23876953 C-28.93605161 65.10032346 -28.95953875 67.96083929 -28.98486328 70.82226562 C-28.98713711 72.66731642 -28.98783938 74.51236996 -28.98681641 76.35742188 C-28.99602615 77.19941132 -29.0052359 78.04140076 -29.01472473 78.90890503 C-28.95967985 86.10496674 -27.64980883 92.9113562 -23.87353516 99.11523438 C-17.35044459 105.27593102 -10.61876726 106.3476886 -1.91650391 106.55664062 C-1.19110916 106.57742172 -0.46571442 106.59820282 0.28166199 106.61961365 C2.58400597 106.68465652 4.88645767 106.74378211 7.18896484 106.80273438 C8.75603298 106.84596272 10.32309049 106.88957836 11.89013672 106.93359375 C15.71880421 107.04029106 19.54757934 107.14168407 23.37646484 107.24023438 C23.3583374 106.55388916 23.34020996 105.86754395 23.3215332 105.16040039 C23.30743408 104.25990967 23.29333496 103.35941895 23.27880859 102.43164062 C23.26068115 101.53904541 23.24255371 100.6464502 23.22387695 99.72680664 C23.37646484 97.24023438 23.37646484 97.24023438 24.93896484 94.17773438 C28.22599752 91.56496481 30.18036889 91.09554141 34.37646484 91.24023438 C38.77516677 93.47957354 38.77516677 93.47957354 40.37646484 96.24023438 C40.8843968 100.05239738 40.65651817 103.36616335 40.37646484 107.24023438 C45.65646484 107.24023438 50.93646484 107.24023438 56.37646484 107.24023438 C56.31845703 105.42136719 56.26044922 103.6025 56.20068359 101.72851562 C56.15378357 99.3366142 56.10828368 96.94468502 56.06396484 94.55273438 C56.02207031 93.35455078 55.98017578 92.15636719 55.93701172 90.921875 C55.81574719 82.21508171 55.81574719 82.21508171 57.4765625 79.32763672 C58.83349609 77.97070312 58.83349609 77.97070312 61.37646484 76.24023438 C61.70646484 75.91023438 62.03646484 75.58023438 62.37646484 75.24023438 C65.12646484 74.86523438 65.12646484 74.86523438 68.37646484 75.24023438 C70.94932208 77.41286938 72.86643404 79.22017276 74.37646484 82.24023438 C74.46137984 84.12662557 74.48365785 86.01601952 74.47412109 87.90429688 C74.46928711 89.58652344 74.46928711 89.58652344 74.46435547 91.30273438 C74.45178711 93.06617188 74.45178711 93.06617188 74.43896484 94.86523438 C74.43445313 96.04859375 74.42994141 97.23195313 74.42529297 98.45117188 C74.41347951 101.38090944 74.39700742 104.3105471 74.37646484 107.24023438 C75.97361896 106.79589912 77.5681867 106.34226089 79.16162109 105.88476562 C80.04986572 105.63315674 80.93811035 105.38154785 81.85327148 105.12231445 C86.76238515 103.40614342 89.52329307 100.68180048 92.18896484 96.17773438 C93.80620713 92.17718767 94.501297 88.85065452 94.5534668 84.53857422 C94.56630203 83.61015717 94.57913727 82.68174011 94.59236145 81.72518921 C94.59974838 80.72726349 94.60713531 79.72933777 94.61474609 78.70117188 C94.62685371 77.14712143 94.62685371 77.14712143 94.63920593 75.56167603 C94.65303045 73.36779444 94.66375989 71.17389149 94.67163086 68.97998047 C94.68313184 66.74749402 94.70355357 64.51503467 94.7331543 62.28271484 C94.77605097 59.04701151 94.79203256 55.81212511 94.80224609 52.57617188 C94.82850822 51.09750137 94.82850822 51.09750137 94.8553009 49.58895874 C94.83260679 42.24036369 93.6992241 34.9532503 88.63569641 29.29501343 C82.28074278 23.47173002 75.05074993 21.86644077 66.51708984 22.02929688 C59.14280287 22.75596019 53.31909824 25.74542668 48.37646484 31.24023438 C45.71237411 35.37416828 44.79452596 39.40630324 44.00146484 44.18945312 C43.24175612 46.68224737 42.45457564 47.67810098 40.37646484 49.24023438 C37.3851496 50.16021531 34.49858697 50.43783704 31.37646484 50.24023438 C28.30596607 48.09088523 27.55954855 46.78948549 26.37646484 43.24023438 C25.36253405 32.31970108 27.83704784 24.02757597 34.37646484 15.24023438 C34.97072266 14.43457031 35.56498047 13.62890625 36.17724609 12.79882812 C38.46462872 10.13766361 40.60585374 8.48486304 43.56396484 6.61523438 C44.44439453 6.04546875 45.32482422 5.47570312 46.23193359 4.88867188 C53.72421597 0.96104062 60.39721369 -0.24559337 68.81396484 -0.13476562 C70.12977539 -0.15216797 70.12977539 -0.15216797 71.47216797 -0.16992188 C83.7519672 -0.11562652 94.66242308 4.38986721 103.92724609 12.46289062 C111.35711069 20.14249857 117.44131937 30.66737008 117.5534668 41.546875 C117.57271965 43.17502136 117.57271965 43.17502136 117.59236145 44.83605957 C117.59974838 46.01099976 117.60713531 47.18593994 117.61474609 48.39648438 C117.62281784 49.60912964 117.63088959 50.8217749 117.63920593 52.07116699 C117.65305022 54.64345876 117.66377082 57.21576892 117.67163086 59.78808594 C117.68877512 63.69697683 117.73265209 67.60500687 117.77685547 71.51367188 C117.78698862 74.01626984 117.79550277 76.51887498 117.80224609 79.02148438 C117.81975418 80.18023071 117.83726227 81.33897705 117.8553009 82.53283691 C117.82945986 92.34300323 115.40531604 100.54935324 110.25146484 108.92773438 C109.75388672 109.75660156 109.25630859 110.58546875 108.74365234 111.43945312 C108.29248047 112.03371094 107.84130859 112.62796875 107.37646484 113.24023438 C106.71646484 113.24023438 106.05646484 113.24023438 105.37646484 113.24023438 C105.13798828 113.82804687 104.89951172 114.41585937 104.65380859 115.02148438 C100.78951985 121.73376574 92.10442649 125.07417796 85.11474609 127.51367188 C79.00212422 129.13556584 72.99823739 129.38600434 66.72241211 129.36962891 C65.88567963 129.37138123 65.04894714 129.37313354 64.18685913 129.37493896 C61.43884161 129.37931667 58.6908892 129.37643363 55.94287109 129.37304688 C54.02147916 129.37372115 52.10008732 129.37469221 50.17869568 129.37594604 C46.15826604 129.37741754 42.13785868 129.3752863 38.11743164 129.37060547 C32.97860469 129.36491238 27.83983001 129.36818802 22.70100498 129.37417793 C18.73491527 129.37780161 14.76883782 129.37663659 10.80274773 129.37405014 C8.90862967 129.37338567 7.01451048 129.37419243 5.12039375 129.37652969 C2.46687011 129.3790855 -0.18657039 129.3751744 -2.84008789 129.36962891 C-3.61384262 129.37165314 -4.38759735 129.37367737 -5.18479919 129.37576294 C-10.08240959 129.35691976 -14.77023809 128.89637742 -19.62353516 128.24023438 C-20.61353516 128.24023438 -21.60353516 128.24023438 -22.62353516 128.24023438 C-23.64625346 127.26348094 -24.64276068 126.25909718 -25.62353516 125.24023438 C-27.18653792 124.28931661 -28.77235522 123.37535869 -30.37353516 122.49023438 C-41.55010711 115.84602227 -47.33770377 106.43176529 -50.97680664 94.06739807 C-52.06705834 89.30137966 -52.05141654 84.61810353 -52.02197266 79.74804688 C-52.02484283 78.68085419 -52.02771301 77.6136615 -52.03067017 76.51412964 C-52.03269965 74.27031927 -52.02724848 72.02649075 -52.01464844 69.78271484 C-51.9986115 66.38142566 -52.01451973 62.98133038 -52.03369141 59.58007812 C-52.03170816 57.38606513 -52.0278628 55.19205286 -52.02197266 52.99804688 C-52.02804535 51.99766388 -52.03411804 50.99728088 -52.04037476 49.96658325 C-51.89912722 35.51014575 -47.56970448 22.83423848 -37.62353516 12.24023438 C-31.29454005 6.75366524 -24.56811329 3.69895573 -16.62353516 1.24023438 C-11.30896545 -0.53128886 -5.56605904 0.01463148 0 0 Z " fill="#2791FB" transform="translate(105.62353515625,67.759765625)"/>
<path d="M0 0 C1.43367789 0.04233077 2.86719443 0.0903537 4.30053711 0.14282227 C5.43041298 0.17823875 5.43041298 0.17823875 6.58311462 0.21437073 C8.99822015 0.2911835 11.41301906 0.37513123 13.82788086 0.45922852 C15.4613292 0.51243161 17.09479268 0.56517211 18.72827148 0.61743164 C22.74083687 0.74682227 26.7531413 0.88261399 30.76538086 1.02172852 C30.78883708 15.64368848 30.80642211 30.26564591 30.81719303 44.88762093 C30.82232913 51.67826088 30.82932007 58.46888908 30.84082031 65.25952148 C30.85192751 71.82124664 30.85767691 78.38296422 30.8602581 84.94469833 C30.86209599 87.43952501 30.86568473 89.93435107 30.87111092 92.42917252 C30.92348636 117.5237295 30.92348636 117.5237295 29.76538086 129.02172852 C30.38857712 128.98846466 31.01177338 128.95520081 31.65385437 128.92092896 C44.62928573 128.23662772 57.58656104 127.91337823 70.57788086 127.89672852 C71.59168823 127.89298218 71.59168823 127.89298218 72.62597656 127.88916016 C89.29479294 127.83850738 89.29479294 127.83850738 96.76538086 129.02172852 C104.07595159 136.33229925 97.76538086 149.68302024 97.76538086 160.02172852 C64.10538086 160.02172852 30.44538086 160.02172852 -4.23461914 160.02172852 C-4.27492217 120.18889636 -4.27492217 120.18889636 -4.28344727 103.55102539 C-4.28939066 92.04377804 -4.29639344 80.53653799 -4.31005859 69.02929688 C-4.32000426 60.65021682 -4.32647229 52.27114267 -4.32870764 43.89205688 C-4.33001494 39.45256727 -4.33310206 35.01309453 -4.3403492 30.57361031 C-4.34710756 26.39995578 -4.34923648 22.22632518 -4.34772682 18.05266571 C-4.34800323 16.51631732 -4.35000945 14.97996818 -4.35382462 13.4436245 C-4.35875901 11.35513234 -4.35761839 9.26673195 -4.35487366 7.17823792 C-4.35579545 6.00663903 -4.35671724 4.83504015 -4.35766697 3.62793827 C-4.17519999 -0.23679654 -3.95720957 0.02658251 0 0 Z " fill="#2691FC" transform="translate(484.234619140625,7.978271484375)"/>
<path d="M0 0 C0.84626953 -0.01933594 1.69253906 -0.03867188 2.56445312 -0.05859375 C6.80966606 -0.02535011 9.01366584 0.2553482 12.6015625 2.671875 C15.00115078 6.28559758 15.40931162 9.28101906 15.5 13.5 C15.54189453 14.18191406 15.58378906 14.86382812 15.62695312 15.56640625 C15.85600226 20.91088617 15.54567132 26.42934604 11.8125 30.5625 C8.79683139 31.98656573 6.86083831 32.10600767 3.5625 31.625 C1.1875 29.625 1.1875 29.625 -0.4375 27.625 C-4.50417842 29.82596216 -7.37741868 32.41279539 -10.5625 35.75 C-25.9106495 51.49128588 -25.9106495 51.49128588 -33.375 51.671875 C-40.05265717 50.71069707 -43.71107567 47.09026197 -48.1875 42.34863281 C-49.78774398 40.6528991 -49.78774398 40.6528991 -52.4375 38.625 C-56.24891113 38.60801005 -58.35295097 39.99581188 -61.125 42.5 C-61.70636719 43.01304687 -62.28773437 43.52609375 -62.88671875 44.0546875 C-64.65571469 45.74651457 -64.65571469 45.74651457 -66.4375 48.625 C-67.0975 48.625 -67.7575 48.625 -68.4375 48.625 C-68.685 49.223125 -68.9325 49.82125 -69.1875 50.4375 C-70.67361853 53.03820743 -71.81699839 54.16916577 -74.4375 55.625 C-77.85496063 56.06127157 -79.97415444 55.80401987 -83.1875 54.5625 C-86.39350629 51.80177236 -86.9501076 49.80264911 -87.4375 45.625 C-84.95836535 39.31447544 -80.55442675 35.87535044 -75.4375 31.625 C-73.74933067 29.98011706 -72.08396685 28.31162458 -70.4375 26.625 C-68.89910433 25.05927936 -67.35713833 23.49706237 -65.8125 21.9375 C-65.05710937 21.17050781 -64.30171875 20.40351562 -63.5234375 19.61328125 C-60.56207729 16.7905615 -58.84565883 15.68726152 -54.75 15.0625 C-49.12053587 15.21687287 -46.16685611 18.77301516 -42.4375 22.625 C-41.00119625 24.08451153 -39.56371917 25.54286943 -38.125 27 C-37.48949219 27.66773438 -36.85398438 28.33546875 -36.19921875 29.0234375 C-34.42396971 30.85404557 -34.42396971 30.85404557 -31.4375 31.625 C-29.01971947 29.37619447 -26.60347654 27.12574339 -24.1875 24.875 C-23.16462891 23.92367187 -23.16462891 23.92367187 -22.12109375 22.953125 C-18.83926767 19.89433564 -15.57802669 16.83027982 -12.4375 13.625 C-12.9325 12.635 -12.9325 12.635 -13.4375 11.625 C-13.83103737 8.08316368 -13.70732133 6.1270446 -12.0078125 2.96484375 C-8.21852993 -0.48467032 -4.95494987 -0.11269787 0 0 Z " fill="#2791FC" transform="translate(174.4375,102.375)"/>
<path d="M0 0 C0.87269531 -0.03738281 1.74539063 -0.07476562 2.64453125 -0.11328125 C6.6109131 0.55082877 8.4087683 3.27600968 10.75561523 6.3996582 C11.24747314 7.13015381 11.73933105 7.86064941 12.24609375 8.61328125 C13.07270508 9.83241211 13.07270508 9.83241211 13.91601562 11.07617188 C14.47998047 11.91728516 15.04394531 12.75839844 15.625 13.625 C16.74802534 15.28821475 17.87171321 16.95098236 18.99609375 18.61328125 C19.53218262 19.40686035 20.06827148 20.20043945 20.62060547 21.01806641 C22.76102475 24.15232325 24.96584421 27.23540291 27.1875 30.3125 C27.78373136 20.63438739 28.32609356 11.014049 28.1875 1.3125 C32.4775 1.3125 36.7675 1.3125 41.1875 1.3125 C41.1875 19.1325 41.1875 36.9525 41.1875 55.3125 C33.59256329 56.83148734 33.59256329 56.83148734 29.1875 55.3125 C27.23667944 52.90931525 25.7607111 50.38082538 24.21484375 47.69921875 C21.86667493 43.77655523 19.23430022 40.15873683 16.5 36.5 C13.27259064 32.17473318 10.14159251 27.83011688 7.1875 23.3125 C7.19910156 24.27027344 7.21070313 25.22804687 7.22265625 26.21484375 C7.30437332 36.28647303 6.88377964 46.26617953 6.1875 56.3125 C2.2275 56.3125 -1.7325 56.3125 -5.8125 56.3125 C-5.83713956 48.49796786 -5.85533105 40.68345812 -5.86743164 32.86889648 C-5.87247383 30.20808519 -5.87930736 27.54727668 -5.88793945 24.88647461 C-5.90001009 21.07144484 -5.90572929 17.25645156 -5.91015625 13.44140625 C-5.91531754 12.24350967 -5.92047882 11.0456131 -5.92579651 9.81141663 C-5.92587204 8.7103508 -5.92594757 7.60928497 -5.92602539 6.47485352 C-5.928246 5.50000504 -5.93046661 4.52515656 -5.93275452 3.52076721 C-5.71200501 -0.53291756 -3.58313929 0.09967737 0 0 Z " fill="#2991FA" transform="translate(638.8125,209.6875)"/>
<path d="M0 0 C0.33 0.66 0.66 1.32 1 2 C2.17973389 1.97643433 2.17973389 1.97643433 3.38330078 1.95239258 C6.96379338 1.88984085 10.54417076 1.85094449 14.125 1.8125 C15.3625 1.78736328 16.6 1.76222656 17.875 1.73632812 C19.07382812 1.72666016 20.27265625 1.71699219 21.5078125 1.70703125 C22.60754395 1.6913208 23.70727539 1.67561035 24.84033203 1.65942383 C29.11071786 2.11972272 32.46096599 3.59622551 35.64453125 6.5 C40.35596097 12.55079937 40.5882898 17.5340676 40 25 C38.36249293 29.74015206 36.16306555 32.22462297 32 35 C31.34 35 30.68 35 30 35 C30.68707031 36.09699219 31.37414062 37.19398438 32.08203125 38.32421875 C32.99221165 39.77863072 33.90236655 41.23305865 34.8125 42.6875 C35.26431641 43.40873047 35.71613281 44.12996094 36.18164062 44.87304688 C38.48932142 48.56196728 40.7785287 52.25818621 43 56 C41.27277272 56.22384382 39.54303993 56.42839969 37.8125 56.625 C36.84957031 56.74101562 35.88664062 56.85703125 34.89453125 56.9765625 C31.49448552 57.00409323 29.89912512 56.80905408 27 55 C24.62390396 51.8028971 22.80605779 48.26894155 20.92578125 44.765625 C20.31669922 43.70601562 20.31669922 43.70601562 19.6953125 42.625 C19.34484863 41.97789062 18.99438477 41.33078125 18.63330078 40.6640625 C16.52373449 38.24082507 16.52373449 38.24082507 10 37 C10 43.27 10 49.54 10 56 C0.72265625 56.87890625 0.72265625 56.87890625 -2 57 C-3.67681799 55.32318201 -3.14461024 53.26255945 -3.16113281 50.96118164 C-3.17074036 49.88659195 -3.1803479 48.81200226 -3.19024658 47.70484924 C-3.19449646 46.53510056 -3.19874634 45.36535187 -3.203125 44.16015625 C-3.20882507 42.96772812 -3.21452515 41.77529999 -3.22039795 40.54673767 C-3.22986454 38.01887911 -3.23638848 35.49100812 -3.24023438 32.96313477 C-3.24994961 29.0826279 -3.28096219 25.20264824 -3.3125 21.32226562 C-3.31902857 18.872399 -3.32427961 16.42252856 -3.328125 13.97265625 C-3.3404718 12.80493179 -3.3528186 11.63720734 -3.36553955 10.43409729 C-3.3610379 8.81748451 -3.3610379 8.81748451 -3.35644531 7.16821289 C-3.36009094 6.21636612 -3.36373657 5.26451935 -3.36749268 4.28382874 C-3.24622009 3.53016525 -3.12494751 2.77650177 -3 2 C-2.01 1.34 -1.02 0.68 0 0 Z M10 13 C10 17.62 10 22.24 10 27 C12.5678125 27.061875 12.5678125 27.061875 15.1875 27.125 C16.63189453 27.15980469 16.63189453 27.15980469 18.10546875 27.1953125 C21.1635978 26.98896101 23.27518604 26.38418613 26 25 C27.52491998 21.95016004 27.23562548 19.3576631 27 16 C26.00830036 14.1467528 26.00830036 14.1467528 24 13 C20.56919882 12.63601382 20.56919882 12.63601382 16.8125 12.8125 C13.4403125 12.9053125 13.4403125 12.9053125 10 13 Z " fill="#278FFA" transform="translate(386,209)"/>
<path d="M0 0 C3.92241473 2.82592152 6.99671399 6.69836814 8.71875 11.23828125 C8.71875 12.22828125 8.71875 13.21828125 8.71875 14.23828125 C4.18173506 15.69012603 0.53813524 16.47337321 -4.28125 16.23828125 C-4.508125 15.45453125 -4.735 14.67078125 -4.96875 13.86328125 C-6.0590211 11.14008709 -6.0590211 11.14008709 -8.34375 9.86328125 C-13.73511602 8.7161821 -18.45983398 9.15318234 -23.21875 11.98828125 C-27.70326811 16.88048283 -27.65618663 21.99931788 -27.53125 28.35546875 C-27.21682 31.98123965 -26.45852395 34.31022318 -24.28125 37.23828125 C-20.44844771 40.41403172 -16.18987694 41.39167584 -11.28125 41.23828125 C-7.82728899 40.30464843 -7.82728899 40.30464843 -5.28125 38.23828125 C-4.95125 36.58828125 -4.62125 34.93828125 -4.28125 33.23828125 C-7.91125 32.90828125 -11.54125 32.57828125 -15.28125 32.23828125 C-16.16015625 25.3046875 -16.16015625 25.3046875 -16.28125 23.23828125 C-15.28125 22.23828125 -15.28125 22.23828125 -12.96459961 22.12475586 C-11.96436768 22.12999268 -10.96413574 22.13522949 -9.93359375 22.140625 C-8.85400391 22.14384766 -7.77441406 22.14707031 -6.66210938 22.15039062 C-4.95764648 22.16295898 -4.95764648 22.16295898 -3.21875 22.17578125 C-1.50848633 22.18254883 -1.50848633 22.18254883 0.23632812 22.18945312 C3.06385351 22.20128378 5.8912764 22.21776715 8.71875 22.23828125 C8.82720027 25.28091392 8.90627063 28.31964329 8.96875 31.36328125 C9.00226562 32.21921875 9.03578125 33.07515625 9.0703125 33.95703125 C9.15689487 39.58488536 8.5420197 42.81276199 4.71875 47.23828125 C-0.59419127 52.11340776 -7.20961822 53.85416755 -14.28125 54.23828125 C-22.86308412 53.6252931 -29.17502597 50.72350935 -35.03125 44.48828125 C-41.59779165 36.43135599 -42.31909079 28.51290506 -41.28125 18.23828125 C-39.7318817 11.94917876 -37.32565406 7.42144559 -32.28125 3.23828125 C-31.559375 2.53703125 -30.8375 1.83578125 -30.09375 1.11328125 C-20.94925285 -4.98305018 -9.5974573 -5.40840319 0 0 Z " fill="#2990F9" transform="translate(731.28125,212.76171875)"/>
<path d="M0 0 C0.495 0.99 0.495 0.99 1 2 C4.63 2 8.26 2 12 2 C12 1.34 12 0.68 12 0 C12.99 0.33 13.98 0.66 15 1 C0.39988688 17.80656109 0.39988688 17.80656109 -6 24 C-4.48203163 27.2378317 -2.64700545 30.11286598 -0.62890625 33.0625 C0.02787109 34.02414063 0.68464844 34.98578125 1.36132812 35.9765625 C2.04646484 36.97429687 2.73160156 37.97203125 3.4375 39 C4.11876953 39.99773437 4.80003906 40.99546875 5.50195312 42.0234375 C8.9807039 47.19675877 8.9807039 47.19675877 12.78149414 52.12890625 C13.18360107 52.74636719 13.58570801 53.36382812 14 54 C13.67 54.99 13.34 55.98 13 57 C0.81837381 57.57444562 0.81837381 57.57444562 -3.2421875 54.05859375 C-5.015007 51.44838255 -6.50603714 48.77831359 -8 46 C-9.29179326 44.15201798 -10.60379571 42.31796596 -11.9375 40.5 C-15 36.24615385 -15 36.24615385 -15 34 C-19.34697553 36.71926158 -19.34697553 36.71926158 -21.58886719 41.10009766 C-21.81329991 43.51858869 -21.88266762 45.8837814 -21.875 48.3125 C-21.895625 49.14845703 -21.91625 49.98441406 -21.9375 50.84570312 C-21.98438005 52.8967055 -21.99573929 54.94846635 -22 57 C-23.81242052 57.02687279 -25.62495233 57.04633715 -27.4375 57.0625 C-28.44683594 57.07410156 -29.45617187 57.08570313 -30.49609375 57.09765625 C-33 57 -33 57 -34 56 C-34.09353163 54.31198015 -34.11744791 52.62004793 -34.11352539 50.92944336 C-34.11344986 49.84839828 -34.11337433 48.76735321 -34.11329651 47.65354919 C-34.10813522 46.4775264 -34.10297394 45.3015036 -34.09765625 44.08984375 C-34.0962413 42.89267227 -34.09482635 41.69550079 -34.09336853 40.46205139 C-34.08774979 36.62050934 -34.07519411 32.77902457 -34.0625 28.9375 C-34.05748741 26.34049563 -34.05292409 23.74349035 -34.04882812 21.14648438 C-34.03777427 14.76430321 -34.02101792 8.3821557 -34 2 C-31.11788698 1.03929566 -29.30149956 0.89418117 -26.3125 0.9375 C-25.10013672 0.95103516 -25.10013672 0.95103516 -23.86328125 0.96484375 C-22.94095703 0.98224609 -22.94095703 0.98224609 -22 1 C-20.96029784 5.2660795 -20.86641528 9.30500278 -20.875 13.6875 C-20.87113281 14.36361328 -20.86726562 15.03972656 -20.86328125 15.73632812 C-20.87325175 20.7465035 -20.87325175 20.7465035 -22 23 C-21.34 23 -20.68 23 -20 23 C-19.72905518 22.40759521 -19.45811035 21.81519043 -19.17895508 21.20483398 C-18.01648075 19.03082163 -16.81967792 17.51088471 -15.13671875 15.72265625 C-14.57919922 15.12646484 -14.02167969 14.53027344 -13.44726562 13.91601562 C-12.86654297 13.30435547 -12.28582031 12.69269531 -11.6875 12.0625 C-11.11837891 11.45470703 -10.54925781 10.84691406 -9.96289062 10.22070312 C-6.70238559 6.75056746 -3.385876 3.34776108 0 0 Z " fill="#288FFA" transform="translate(586,209)"/>
<path d="M0 0 C5.28 0 10.56 0 16 0 C18.89439811 7.08192086 21.78228279 14.16642374 24.66040039 21.25497437 C26.42364594 25.5937943 28.20513094 29.92482392 29.9921875 34.25390625 C30.91178613 36.50247013 31.83107024 38.75116268 32.75 41 C33.1919873 42.06081787 33.63397461 43.12163574 34.08935547 44.21459961 C34.68707764 45.6861853 34.68707764 45.6861853 35.296875 47.1875 C35.65104492 48.04730469 36.00521484 48.90710938 36.37011719 49.79296875 C37 52 37 52 36 55 C31.71 54.67 27.42 54.34 23 54 C21.68 50.7 20.36 47.4 19 44 C12.07 43.67 5.14 43.34 -2 43 C-2.99 46.3 -3.98 49.6 -5 53 C-8.86790003 54.93395001 -10.1500459 55.23289353 -14.25 55.125 C-15.58804687 55.09792969 -15.58804687 55.09792969 -16.953125 55.0703125 C-17.62859375 55.04710937 -18.3040625 55.02390625 -19 55 C-18.26584058 49.95770336 -16.33605224 45.42661513 -14.47265625 40.71875 C-14.12367783 39.82764526 -13.7746994 38.93654053 -13.41514587 38.01843262 C-12.30146952 35.17741738 -11.18205321 32.33870379 -10.0625 29.5 C-9.31277539 27.58999116 -8.56342235 25.67983642 -7.81445312 23.76953125 C-6.43854103 20.26277776 -5.06099272 16.75668221 -3.67993164 13.25195312 C-3.38724396 12.50502197 -3.09455627 11.75809082 -2.79299927 10.98852539 C-2.1477829 9.37058047 -1.46495076 7.76767519 -0.77124023 6.16992188 C0.22326588 3.75564814 0.22326588 3.75564814 0 0 Z M8 15 C6.02 20.61 4.04 26.22 2 32 C6.29 32 10.58 32 15 32 C12.76572744 23.19504055 12.76572744 23.19504055 9 15 C8.67 15 8.34 15 8 15 Z " fill="#2990FA" transform="translate(452,211)"/>
<path d="M0 0 C4.60546318 3.4031949 8.83645575 7.59238711 9.85546875 13.37109375 C8.42117874 14.04463874 6.98289818 14.70969076 5.54296875 15.37109375 C4.34220703 15.92796875 4.34220703 15.92796875 3.1171875 16.49609375 C0.85546875 17.37109375 0.85546875 17.37109375 -2.14453125 17.37109375 C-2.91796875 15.97890625 -2.91796875 15.97890625 -3.70703125 14.55859375 C-5.67808512 11.26311633 -7.76187807 10.55668502 -11.39453125 9.49609375 C-12.97254639 9.0993096 -14.55458784 8.71699747 -16.14453125 8.37109375 C-16.47453125 9.36109375 -16.80453125 10.35109375 -17.14453125 11.37109375 C-17.14453125 10.71109375 -17.14453125 10.05109375 -17.14453125 9.37109375 C-22.44309945 11.97039136 -25.06499657 13.59460853 -27.14453125 19.37109375 C-28.6156425 24.57656434 -27.67774299 28.35707698 -26.14453125 33.37109375 C-25.86609375 34.76328125 -25.86609375 34.76328125 -25.58203125 36.18359375 C-23.52197843 39.31845674 -21.20274724 39.99457671 -17.65625 40.98828125 C-13.48166995 41.6245314 -9.97284442 41.17047499 -6.14453125 39.37109375 C-4.02944803 37.50252373 -2.74088378 35.73987492 -1.14453125 33.37109375 C0.31441135 33.84840213 1.77260371 34.32800417 3.23046875 34.80859375 C4.04257812 35.07542969 4.8546875 35.34226563 5.69140625 35.6171875 C7.85546875 36.37109375 7.85546875 36.37109375 9.85546875 37.37109375 C8.96132262 42.97866735 4.80985215 46.58177535 0.85546875 50.37109375 C-5.64559503 54.7493612 -13.56040453 54.19700912 -21.14453125 53.37109375 C-28.54795851 51.25302714 -33.96437815 46.78066183 -38.14453125 40.37109375 C-42.22943773 32.55141562 -42.40998648 23.1128525 -40.14453125 14.68359375 C-37.22268211 7.13891286 -31.40389653 1.34798407 -24.1015625 -1.97265625 C-16.175925 -4.63035505 -7.34149482 -4.13242904 0 0 Z " fill="#2990FA" transform="translate(532.14453125,212.62890625)"/>
<path d="M0 0 C14.19 0 28.38 0 43 0 C43 3.63 43 7.26 43 11 C42.09636719 11.06058594 41.19273437 11.12117187 40.26171875 11.18359375 C38.49248047 11.30927734 38.49248047 11.30927734 36.6875 11.4375 C34.92986328 11.55931641 34.92986328 11.55931641 33.13671875 11.68359375 C29.97409042 11.8867371 29.97409042 11.8867371 27 13 C27 26.86 27 40.72 27 55 C23.04 55 19.08 55 15 55 C13.84390293 52.68780587 13.90914899 51.48269304 13.97827148 48.91748047 C14.00841591 47.65639969 14.00841591 47.65639969 14.03916931 46.36984253 C14.07972191 45.00727829 14.07972191 45.00727829 14.12109375 43.6171875 C14.14470474 42.68778351 14.16831573 41.75837952 14.19264221 40.80081177 C14.2693609 37.82538894 14.35334991 34.85022104 14.4375 31.875 C14.49071247 29.86068966 14.54345292 27.84636678 14.59570312 25.83203125 C14.72498716 20.88785868 14.86079293 15.94390273 15 11 C10.71 11 6.42 11 2 11 C1.67 11.66 1.34 12.32 1 13 C0 10 0 10 0 0 Z " fill="#278FF9" transform="translate(331,211)"/>
<path d="M0 0 C0 17.82 0 35.64 0 54 C-2.50139602 55.25069801 -4.27392691 55.13302467 -7.0625 55.125 C-8.41021484 55.12886719 -8.41021484 55.12886719 -9.78515625 55.1328125 C-12 55 -12 55 -13 54 C-13.09353163 52.31198015 -13.11744791 50.62004793 -13.11352539 48.92944336 C-13.11344986 47.84839828 -13.11337433 46.76735321 -13.11329651 45.65354919 C-13.10813522 44.4775264 -13.10297394 43.3015036 -13.09765625 42.08984375 C-13.0962413 40.89267227 -13.09482635 39.69550079 -13.09336853 38.46205139 C-13.08774979 34.62050934 -13.07519411 30.77902457 -13.0625 26.9375 C-13.05748741 24.34049563 -13.05292409 21.74349035 -13.04882812 19.14648438 C-13.03777427 12.76430321 -13.02101792 6.3821557 -13 0 C-11 -1 -11 -1 0 0 Z " fill="#2C92FA" transform="translate(621,211)"/>
<path d="M0 0 C1.43367789 0.04233077 2.86719443 0.0903537 4.30053711 0.14282227 C5.43041298 0.17823875 5.43041298 0.17823875 6.58311462 0.21437073 C8.99822015 0.2911835 11.41301906 0.37513123 13.82788086 0.45922852 C15.4613292 0.51243161 17.09479268 0.56517211 18.72827148 0.61743164 C22.74083687 0.74682227 26.7531413 0.88261399 30.76538086 1.02172852 C30.78883708 15.64368848 30.80642211 30.26564591 30.81719303 44.88762093 C30.82232913 51.67826088 30.82932007 58.46888908 30.84082031 65.25952148 C30.85192751 71.82124664 30.85767691 78.38296422 30.8602581 84.94469833 C30.86209599 87.43952501 30.86568473 89.93435107 30.87111092 92.42917252 C30.92348636 117.5237295 30.92348636 117.5237295 29.76538086 129.02172852 C30.38857712 128.98846466 31.01177338 128.95520081 31.65385437 128.92092896 C44.62928573 128.23662772 57.58656104 127.91337823 70.57788086 127.89672852 C71.59168823 127.89298218 71.59168823 127.89298218 72.62597656 127.88916016 C89.29479294 127.83850738 89.29479294 127.83850738 96.76538086 129.02172852 C104.07595159 136.33229925 97.76538086 149.68302024 97.76538086 160.02172852 C64.10538086 160.02172852 30.44538086 160.02172852 -4.23461914 160.02172852 C-4.27492217 120.18889636 -4.27492217 120.18889636 -4.28344727 103.55102539 C-4.28939066 92.04377804 -4.29639344 80.53653799 -4.31005859 69.02929688 C-4.32000426 60.65021682 -4.32647229 52.27114267 -4.32870764 43.89205688 C-4.33001494 39.45256727 -4.33310206 35.01309453 -4.3403492 30.57361031 C-4.34710756 26.39995578 -4.34923648 22.22632518 -4.34772682 18.05266571 C-4.34800323 16.51631732 -4.35000945 14.97996818 -4.35382462 13.4436245 C-4.35875901 11.35513234 -4.35761839 9.26673195 -4.35487366 7.17823792 C-4.35579545 6.00663903 -4.35671724 4.83504015 -4.35766697 3.62793827 C-4.17519999 -0.23679654 -3.95720957 0.02658251 0 0 Z M-2.23461914 2.02172852 C-2.56461914 53.83172852 -2.89461914 105.64172852 -3.23461914 159.02172852 C29.76538086 159.02172852 62.76538086 159.02172852 96.76538086 159.02172852 C96.76538086 149.45172852 96.76538086 139.88172852 96.76538086 130.02172852 C74.32538086 130.02172852 51.88538086 130.02172852 28.76538086 130.02172852 C28.76538086 87.78172852 28.76538086 45.54172852 28.76538086 2.02172852 C18.53538086 2.02172852 8.30538086 2.02172852 -2.23461914 2.02172852 Z " fill="#44A3F7" transform="translate(484.234619140625,7.978271484375)"/>
<path d="M0 0 C10.23 0 20.46 0 31 0 C31 0.33 31 0.66 31 1 C21.1 1 11.2 1 1 1 C1 51.82 1 102.64 1 155 C14.53 155 28.06 155 42 155 C52.02257151 155.13672692 62.04169239 155.28995564 72.0625 155.5 C74.52538342 155.54854417 76.98827411 155.59672062 79.45117188 155.64453125 C85.30089724 155.75819426 91.15040155 155.87916728 97 156 C97 147.42 97 138.84 97 130 C75.55 130 54.1 130 32 130 C32 129.67 32 129.34 32 129 C53.78 129 75.56 129 98 129 C98 138.24 98 147.48 98 157 C65.33 157 32.66 157 -1 157 C-0.67 105.19 -0.34 53.38 0 0 Z " fill="#127DFB" transform="translate(482,10)"/>
<path d="M0 0 C78 0 78 0 82 2 C55.27 1.67 28.54 1.34 1 1 C1 51.82 1 102.64 1 155 C10.24 155 19.48 155 29 155 C29.85114792 149.1468 29.85114792 149.1468 30.20532227 143.34985352 C30.22526749 142.50951065 30.24521271 141.66916779 30.26576233 140.80335999 C30.28247482 139.92079025 30.29918732 139.03822052 30.31640625 138.12890625 C30.33718735 137.206577 30.35796844 136.28424774 30.37937927 135.33396912 C30.44435638 132.41021617 30.50351684 129.48637939 30.5625 126.5625 C30.60573461 124.57095514 30.64935042 122.57941852 30.69335938 120.58789062 C30.79998407 115.72534463 30.90139503 110.86271496 31 106 C31.33 106 31.66 106 32 106 C32 122.83 32 139.66 32 157 C21.44 157 10.88 157 0 157 C0 105.19 0 53.38 0 0 Z " fill="#137EF9" transform="translate(333,10)"/>
<path d="M0 0 C3.96 0 7.92 0 12 0 C12 17.82 12 35.64 12 54 C11.67 54 11.34 54 11 54 C10.67 36.84 10.34 19.68 10 2 C7.36 2 4.72 2 2 2 C2 11.24 2 20.48 2 30 C1.34 29.67 0.68 29.34 0 29 C0 19.43 0 9.86 0 0 Z " fill="#3A9AF8" transform="translate(668,211)"/>
<path d="M0 0 C0.33 0.66 0.66 1.32 1 2 C2.17973389 1.97643433 2.17973389 1.97643433 3.38330078 1.95239258 C6.96379338 1.88984085 10.54417076 1.85094449 14.125 1.8125 C15.3625 1.78736328 16.6 1.76222656 17.875 1.73632812 C19.07382812 1.72666016 20.27265625 1.71699219 21.5078125 1.70703125 C22.60754395 1.6913208 23.70727539 1.67561035 24.84033203 1.65942383 C28.4860324 2.05238875 30.87541367 3.11037469 34 5 C34.495 5.99 34.495 5.99 35 7 C31.66666667 6.33333333 28.33333333 5.66666667 25 5 C25 4.67 25 4.34 25 4 C16.09 3.67 7.18 3.34 -2 3 C-2 20.49 -2 37.98 -2 56 C-2.33 56 -2.66 56 -3 56 C-3.07586651 48.34625576 -3.12852217 40.69260793 -3.16479492 33.03857422 C-3.17991108 30.43306861 -3.20040432 27.82758856 -3.22631836 25.22216797 C-3.26257688 21.48398544 -3.27969798 17.74613835 -3.29296875 14.0078125 C-3.30845261 12.83695099 -3.32393646 11.66608948 -3.33988953 10.45974731 C-3.34011612 9.37877777 -3.34034271 8.29780823 -3.34057617 7.18408203 C-3.34723801 6.22921906 -3.35389984 5.27435608 -3.36076355 4.29055786 C-3.24171158 3.53467377 -3.12265961 2.77878967 -3 2 C-2.01 1.34 -1.02 0.68 0 0 Z " fill="#439FF6" transform="translate(386,209)"/>
<path d="M0 0 C0.33 0 0.66 0 1 0 C1 16.5 1 33 1 50 C-2.63 49.67 -6.26 49.34 -10 49 C-9.67 47.68 -9.34 46.36 -9 45 C-8.67 45.33 -8.34 45.66 -8 46 C-4.04 46.495 -4.04 46.495 0 47 C0 31.49 0 15.98 0 0 Z " fill="#1A7FF2" transform="translate(678,216)"/>
<path d="M0 0 C0.74617584 0.00141495 1.49235168 0.0028299 2.26113892 0.00428772 C4.62465568 0.00984751 6.98807477 0.02239236 9.3515625 0.03515625 C10.96223821 0.04017645 12.57291541 0.04473845 14.18359375 0.04882812 C18.11462049 0.05980374 22.04557498 0.07704029 25.9765625 0.09765625 C25.6465625 1.41765625 25.3165625 2.73765625 24.9765625 4.09765625 C24.4815625 3.10765625 24.4815625 3.10765625 23.9765625 2.09765625 C18.90405336 2.16647599 13.83237311 2.25441319 8.76049805 2.36010742 C7.03500557 2.39336797 5.30940401 2.42139644 3.58374023 2.4440918 C1.10353084 2.47761778 -1.3756778 2.52993031 -3.85546875 2.5859375 C-5.01342705 2.59552238 -5.01342705 2.59552238 -6.19477844 2.6053009 C-10.41036827 2.68531379 -10.41036827 2.68531379 -14.03393555 4.62963867 C-14.36047119 5.11408447 -14.68700684 5.59853027 -15.0234375 6.09765625 C-15.0234375 3.09765625 -15.0234375 3.09765625 -14.0234375 1.09765625 C-9.37704321 -0.02518546 -4.75236326 -0.03441406 0 0 Z " fill="#3697F4" transform="translate(714.0234375,7.90234375)"/>
<path d="M0 0 C0.78674103 -0.00095673 1.57348206 -0.00191345 2.38406372 -0.00289917 C4.05015137 -0.00358024 5.71624166 -0.00173102 7.38232422 0.00244141 C9.92812096 0.00777647 12.47374012 0.00250136 15.01953125 -0.00390625 C16.63802122 -0.00324518 18.25651108 -0.00196341 19.875 0 C21.01580521 -0.00303635 21.01580521 -0.00303635 22.17965698 -0.00613403 C25.61206501 0.00901955 28.79028237 0.0487986 32.0703125 1.1328125 C31.7403125 1.7928125 31.4103125 2.4528125 31.0703125 3.1328125 C12.7553125 2.6378125 12.7553125 2.6378125 -5.9296875 2.1328125 C-6.2596875 2.7928125 -6.5896875 3.4528125 -6.9296875 4.1328125 C-7.9196875 3.1428125 -8.9096875 2.1528125 -9.9296875 1.1328125 C-6.79237463 -0.43584393 -3.44324553 -0.00911595 0 0 Z " fill="#3797F4" transform="translate(600.9296875,7.8671875)"/>
<path d="M0 0 C1.97119141 -0.2487793 1.97119141 -0.2487793 4.3515625 -0.07421875 C5.62773437 0.00795898 5.62773437 0.00795898 6.9296875 0.09179688 C7.81914062 0.16462891 8.70859375 0.23746094 9.625 0.3125 C10.5221875 0.37373047 11.419375 0.43496094 12.34375 0.49804688 C14.56386306 0.65156533 16.78194979 0.81943161 19 1 C19.33 1.66 19.66 2.32 20 3 C12.74 3 5.48 3 -2 3 C-1.34 2.01 -0.68 1.02 0 0 Z " fill="#1C85F7" transform="translate(452,250)"/>
<path d="M0 0 C0 3 0 3 -1.8984375 5.04296875 C-2.71570313 5.75066406 -3.53296875 6.45835938 -4.375 7.1875 C-5.18710938 7.90292969 -5.99921875 8.61835938 -6.8359375 9.35546875 C-9 11 -9 11 -11 11 C-11.28875 11.639375 -11.5775 12.27875 -11.875 12.9375 C-13 15 -13 15 -15 16 C-13.76028915 9.64648187 -9.93050501 6.73323132 -5 3 C-2 1.0625 -2 1.0625 0 0 Z " fill="#2188FA" transform="translate(159,121)"/>
<path d="M0 0 C2 3 2 3 1.5390625 6.35546875 C1.23742187 7.62003906 0.93578125 8.88460937 0.625 10.1875 C0.32851562 11.45980469 0.03203125 12.73210937 -0.2734375 14.04296875 C-0.51320313 15.01878906 -0.75296875 15.99460937 -1 17 C-1.99 17 -2.98 17 -4 17 C-3.45018084 10.95198929 -2.09570426 5.69398894 0 0 Z " fill="#3293F7" transform="translate(8,56)"/>
<path d="M0 0 C0.66 0.99 1.32 1.98 2 3 C1.125 6.1875 1.125 6.1875 0 9 C-0.66 9 -1.32 9 -2 9 C-2 13.29 -2 17.58 -2 22 C-2.33 22 -2.66 22 -3 22 C-3.30372936 13.99054432 -3.50848663 7.30934715 0 0 Z " fill="#3D9AF7" transform="translate(693,223)"/>
<path d="M0 0 C1 3 1 3 -0.328125 5.6640625 C-1.27945312 7.12972656 -1.27945312 7.12972656 -2.25 8.625 C-2.87390625 9.60726562 -3.4978125 10.58953125 -4.140625 11.6015625 C-6 14 -6 14 -9 15 C-7.68262072 11.41061876 -6.09204262 8.40505503 -3.9375 5.25 C-3.41027344 4.47140625 -2.88304687 3.6928125 -2.33984375 2.890625 C-1 1 -1 1 0 0 Z " fill="#2E8FF4" transform="translate(20,36)"/>
<path d="M0 0 C0.97582031 0.10183594 1.95164062 0.20367187 2.95703125 0.30859375 C3.69308594 0.39238281 4.42914062 0.47617188 5.1875 0.5625 C1.44514681 3.01239101 -2.25475419 2.79336143 -6.5625 2.6875 C-7.25988281 2.67847656 -7.95726562 2.66945312 -8.67578125 2.66015625 C-10.38816958 2.63669888 -12.10038004 2.60083104 -13.8125 2.5625 C-9.15875865 -0.53999424 -5.4679002 -0.59290484 0 0 Z " fill="#3998F6" transform="translate(520.8125,209.4375)"/>
<path d="M0 0 C0 0.33 0 0.66 0 1 C-1.72722728 1.22384382 -3.45696007 1.42839969 -5.1875 1.625 C-6.63189453 1.79902344 -6.63189453 1.79902344 -8.10546875 1.9765625 C-11.24075323 2.00194942 -13.19486535 1.34359283 -16 0 C-4.66666667 -3.30555556 -4.66666667 -3.30555556 0 0 Z " fill="#2789F3" transform="translate(429,264)"/>
<path d="M0 0 C1.32 0.33 2.64 0.66 4 1 C0.7 4.3 -2.6 7.6 -6 11 C-6.66 10.67 -7.32 10.34 -8 10 C-7.401875 9.443125 -6.80375 8.88625 -6.1875 8.3125 C-4.01074085 6.01135462 -2.55742513 3.74403476 -1 1 C-0.67 0.67 -0.34 0.34 0 0 Z " fill="#2189FA" transform="translate(48,247)"/>
<path d="M0 0 C-2 1 -4 2 -6 3 C-6.639375 3.391875 -7.27875 3.78375 -7.9375 4.1875 C-10.96202448 5.37897934 -13.78835313 5.12352488 -17 5 C-14.15819378 3.10546252 -11.68435185 1.99807186 -8.5 0.8125 C-7.5409375 0.44769531 -6.581875 0.08289063 -5.59375 -0.29296875 C-3 -1 -3 -1 0 0 Z " fill="#3798F7" transform="translate(69,6)"/>
<path d="M0 0 C0.33 0.66 0.66 1.32 1 2 C4.63 2 8.26 2 12 2 C12 1.34 12 0.68 12 0 C12.99 0.33 13.98 0.66 15 1 C13.68 2.32 12.36 3.64 11 5 C11 4.34 11 3.68 11 3 C10.15695312 3.09539062 9.31390625 3.19078125 8.4453125 3.2890625 C7.34960938 3.39992187 6.25390625 3.51078125 5.125 3.625 C3.48917969 3.79902344 3.48917969 3.79902344 1.8203125 3.9765625 C0.42425781 3.98816406 0.42425781 3.98816406 -1 4 C-1.66 3.34 -2.32 2.68 -3 2 C-2.01 1.34 -1.02 0.68 0 0 Z " fill="#3B98F3" transform="translate(586,209)"/>
<path d="M0 0 C0.33 0 0.66 0 1 0 C1.08142927 1.7492214 1.13938541 3.49954542 1.1875 5.25 C1.23970703 6.71179688 1.23970703 6.71179688 1.29296875 8.203125 C0.96075202 11.37468742 0.11327721 12.67040307 -2 15 C-2.05406122 13.06280622 -2.09282025 11.12518079 -2.125 9.1875 C-2.14820313 8.10855469 -2.17140625 7.02960938 -2.1953125 5.91796875 C-2 3 -2 3 0 0 Z " fill="#379AFB" transform="translate(493,229)"/>
<path d="M0 0 C-8.261959 5.74031891 -8.261959 5.74031891 -13 5 C-9.76220634 1.00037254 -4.97776602 -1.65925534 0 0 Z " fill="#3296F9" transform="translate(163,70)"/>
<path d="M0 0 C0.66 0.33 1.32 0.66 2 1 C-0.31 3.64 -2.62 6.28 -5 9 C-5.99 8.67 -6.98 8.34 -8 8 C-5.36 5.36 -2.72 2.72 0 0 Z " fill="#1F86F8" transform="translate(170,128)"/>
<path d="M0 0 C0.99 0.33 1.98 0.66 3 1 C2.38461538 7.52307692 2.38461538 7.52307692 0.4375 9.9375 C-0.036875 10.288125 -0.51125 10.63875 -1 11 C-1.33 10.34 -1.66 9.68 -2 9 C-1.3409159 7.33032028 -0.67349161 5.66392045 0 4 C0 2.68 0 1.36 0 0 Z " fill="#3595F6" transform="translate(452,211)"/>
<path d="M0 0 C0.28875 0.61875 0.5775 1.2375 0.875 1.875 C1.93720042 4.13325765 1.93720042 4.13325765 4 6 C6.32275177 6.40047444 8.65739357 6.7397104 11 7 C11 7.33 11 7.66 11 8 C2.42857143 8.28571429 2.42857143 8.28571429 -1 6 C-0.67 4.02 -0.34 2.04 0 0 Z " fill="#1A81F8" transform="translate(134,108)"/>
<path d="M0 0 C2.86724686 0.57344937 3.8614515 0.8614515 6 3 C6.1953125 5.1640625 6.1953125 5.1640625 6.125 7.625 C6.10695313 8.44226563 6.08890625 9.25953125 6.0703125 10.1015625 C6.03550781 11.04128906 6.03550781 11.04128906 6 12 C5.67 12 5.34 12 5 12 C4.9175 10.948125 4.835 9.89625 4.75 8.8125 C3.94679238 4.72952791 2.80665291 2.9877273 0 0 Z " fill="#3496F8" transform="translate(408,220)"/>
<path d="M0 0 C0.66 0.33 1.32 0.66 2 1 C1.0409375 1.7425 1.0409375 1.7425 0.0625 2.5 C-2.81515269 5.98806387 -2.70230736 8.53461041 -3 13 C-3.33 13 -3.66 13 -4 13 C-4 9.37 -4 5.74 -4 2 C-2.68 1.34 -1.36 0.68 0 0 Z " fill="#1B81FA" transform="translate(134,161)"/>
<path d="M0 0 C-1 2 -1 2 -4.25 3.125 C-7.37700635 3.85463482 -9.82622905 4.19234975 -13 4 C-11.66666667 3.33333333 -10.33333333 2.66666667 -9 2 C-8.360625 1.62875 -7.72125 1.2575 -7.0625 0.875 C-4.58890178 -0.17440531 -2.66046462 -0.14780359 0 0 Z " fill="#3B95EF" transform="translate(30,302)"/>
<path d="M0 0 C0 0.99 0 1.98 0 3 C-3 5.1875 -3 5.1875 -6 7 C-6.66 6.67 -7.32 6.34 -8 6 C-3.375 1.125 -3.375 1.125 0 0 Z " fill="#3594F4" transform="translate(736,257)"/>
<path d="M0 0 C-2.85478326 1.90318884 -4.41941308 2.4619099 -7.6875 3.125 C-8.49574219 3.29257813 -9.30398438 3.46015625 -10.13671875 3.6328125 C-10.75160156 3.75398437 -11.36648438 3.87515625 -12 4 C-11.67 3.01 -11.34 2.02 -11 1 C-7.27569643 0.30710631 -3.78916254 -0.11144596 0 0 Z " fill="#2086F7" transform="translate(516,211)"/>
<path d="M0 0 C0.33 0.66 0.66 1.32 1 2 C1.66 2 2.32 2 3 2 C3.66 3.65 4.32 5.3 5 7 C4.34 7.66 3.68 8.32 3 9 C0 3.375 0 3.375 0 0 Z " fill="#3596F7" transform="translate(492,245)"/>
<path d="M0 0 C1.32 0.33 2.64 0.66 4 1 C1.69 2.65 -0.62 4.3 -3 6 C-3.66 5.67 -4.32 5.34 -5 5 C-2.75 2.4375 -2.75 2.4375 0 0 Z " fill="#3496F7" transform="translate(233,232)"/>
<path d="M0 0 C1.32 0.33 2.64 0.66 4 1 C1.03 3.475 1.03 3.475 -2 6 C-2.66 5.67 -3.32 5.34 -4 5 C-2.68 3.35 -1.36 1.7 0 0 Z " fill="#2088FA" transform="translate(148,75)"/>
<path d="M0 0 C3.875 1.75 3.875 1.75 5 4 C7.52733235 4.65555119 7.52733235 4.65555119 10 5 C10 5.33 10 5.66 10 6 C6.29706315 6.33663062 4.60465619 6.47736015 1.625 4.125 C0 2 0 2 0 0 Z " fill="#3598FA" transform="translate(174,128)"/>
<path d="M0 0 C0.99 0.33 1.98 0.66 3 1 C4.1875 3.5625 4.1875 3.5625 5 6 C4.34 6.66 3.68 7.32 3 8 C0 2.25 0 2.25 0 0 Z " fill="#3394F7" transform="translate(691,246)"/>
<path d="M0 0 C0.66 0.33 1.32 0.66 2 1 C-0.57404971 4.86107457 -2.61020259 4.94319692 -7 6 C-4.74259377 3.66475218 -2.7194239 1.81294927 0 0 Z " fill="#3695F4" transform="translate(46,13)"/>
<path d="M0 0 C3.3 0.99 6.6 1.98 10 3 C8.02 3.99 8.02 3.99 6 5 C5.34 4.67 4.68 4.34 4 4 C4 3.34 4 2.68 4 2 C3.01 2.33 2.02 2.66 1 3 C0.67 2.01 0.34 1.02 0 0 Z " fill="#379AF8" transform="translate(212,7)"/>
<path d="M0 0 C2.97 0 5.94 0 9 0 C9 0.33 9 0.66 9 1 C6.03 1 3.06 1 0 1 C0 0.67 0 0.34 0 0 Z " fill="#469CEE" transform="translate(336,223)"/>
<path d="M0 0 C1.98 0 3.96 0 6 0 C5.34 0.66 4.68 1.32 4 2 C2.68 1.34 1.36 0.68 0 0 Z " fill="#3E9CF8" transform="translate(394,117)"/>
<path d="M0 0 C4 1 4 1 4 1 Z " fill="#4A9DEE" transform="translate(734,233)"/>
<path d="M0 0 C4 1 4 1 4 1 Z " fill="#469FF4" transform="translate(397,223)"/>
<path d="M0 0 C4 1 4 1 4 1 Z " fill="#3C9DFA" transform="translate(131,198)"/>
<path d="M0 0 C3 1 3 1 3 1 Z " fill="#45A0F2" transform="translate(711,223)"/>
<path d="" fill="#459CF1" transform="translate(0,0)"/>
<path d="M0 0 C3 1 3 1 3 1 Z " fill="#3B9CFA" transform="translate(116,198)"/>
<path d="M0 0 C3 1 3 1 3 1 Z " fill="#3E9EF9" transform="translate(90,197)"/>
<path d="" fill="#419EF6" transform="translate(0,0)"/>
<path d="M0 0 C3 1 3 1 3 1 Z " fill="#3F9DF9" transform="translate(378,117)"/>
<path d="" fill="#409DF8" transform="translate(0,0)"/>
<path d="" fill="#4999E9" transform="translate(0,0)"/>
<path d="" fill="#419EF9" transform="translate(0,0)"/>
<path d="M0 0 C2 1 2 1 2 1 Z " fill="#4D93D9" transform="translate(722,267)"/>
<path d="" fill="#4699E9" transform="translate(0,0)"/>
<path d="M0 0 C2 1 2 1 2 1 Z " fill="#4A9DF0" transform="translate(722,233)"/>
<path d="M0 0 C2 1 2 1 2 1 Z " fill="#47A0F4" transform="translate(407,223)"/>
<path d="" fill="#4EA0EB" transform="translate(0,0)"/>
<path d="M0 0 C2 1 2 1 2 1 Z " fill="#3C9CFA" transform="translate(171,198)"/>
<path d="M0 0 C2 1 2 1 2 1 Z " fill="#3A9CF9" transform="translate(166,198)"/>
<path d="M0 0 C2 1 2 1 2 1 Z " fill="#3C9DF9" transform="translate(147,198)"/>
<path d="M0 0 C2 1 2 1 2 1 Z " fill="#3A9CF9" transform="translate(139,198)"/>
<path d="M0 0 C2 1 2 1 2 1 Z " fill="#3B9DF9" transform="translate(122,198)"/>
<path d="M0 0 C2 1 2 1 2 1 Z " fill="#3A9BFA" transform="translate(110,198)"/>
<path d="" fill="#44A1F5" transform="translate(0,0)"/>
<path d="" fill="#3C9BF8" transform="translate(0,0)"/>
<path d="" fill="#409FF8" transform="translate(0,0)"/>
<path d="" fill="#3F9DF6" transform="translate(0,0)"/>
<path d="" fill="#409EF8" transform="translate(0,0)"/>
<path d="" fill="#449EF6" transform="translate(0,0)"/>
<path d="" fill="#419EF8" transform="translate(0,0)"/>
<path d="M0 0 C2 1 2 1 2 1 Z " fill="#419FFA" transform="translate(403,117)"/>
<path d="M0 0 C2 1 2 1 2 1 Z " fill="#3F9DF8" transform="translate(382,117)"/>
<path d="M0 0 C2 1 2 1 2 1 Z " fill="#3E9DF8" transform="translate(371,117)"/>
<path d="" fill="#409EFA" transform="translate(0,0)"/>
<path d="" fill="#3D9FFB" transform="translate(0,0)"/>
<path d="" fill="#3F9EFA" transform="translate(0,0)"/>
<path d="" fill="#419FF7" transform="translate(0,0)"/>
<path d="" fill="#3D9DF9" transform="translate(0,0)"/>
<path d="M0 0 C2 1 2 1 2 1 Z " fill="#3F9EF8" transform="translate(410,43)"/>
<path d="M0 0 C2 1 2 1 2 1 Z " fill="#4899E3" transform="translate(28,24)"/>
<path d="M0 0 C2 1 2 1 2 1 Z " fill="#4C9CE7" transform="translate(52,8)"/>
<path d="" fill="#489BEC" transform="translate(0,0)"/>
<path d="" fill="#4D90D2" transform="translate(0,0)"/>
<path d="" fill="#4D91D2" transform="translate(0,0)"/>
<path d="" fill="#4D95E0" transform="translate(0,0)"/>
<path d="" fill="#4D94DF" transform="translate(0,0)"/>
<path d="" fill="#4D95DE" transform="translate(0,0)"/>
<path d="" fill="#4D98E1" transform="translate(0,0)"/>
<path d="" fill="#4B97E1" transform="translate(0,0)"/>
<path d="" fill="#4D96DF" transform="translate(0,0)"/>
<path d="" fill="#4E95DC" transform="translate(0,0)"/>
<path d="" fill="#4D93D9" transform="translate(0,0)"/>
<path d="" fill="#4F94DE" transform="translate(0,0)"/>
<path d="" fill="#4F95DE" transform="translate(0,0)"/>
<path d="" fill="#4C97E3" transform="translate(0,0)"/>
<path d="" fill="#4E98E4" transform="translate(0,0)"/>
<path d="" fill="#4B97E2" transform="translate(0,0)"/>
<path d="" fill="#469CE8" transform="translate(0,0)"/>
<path d="" fill="#4A9AE8" transform="translate(0,0)"/>
<path d="" fill="#4B9BEA" transform="translate(0,0)"/>
<path d="" fill="#4699EC" transform="translate(0,0)"/>
<path d="" fill="#4A9BEC" transform="translate(0,0)"/>
<path d="" fill="#4A9DED" transform="translate(0,0)"/>
<path d="" fill="#4A9EEF" transform="translate(0,0)"/>
<path d="" fill="#4A9DF0" transform="translate(0,0)"/>
<path d="" fill="#449AEF" transform="translate(0,0)"/>
<path d="" fill="#489EEF" transform="translate(0,0)"/>
<path d="" fill="#499DF3" transform="translate(0,0)"/>
<path d="" fill="#4AA1F4" transform="translate(0,0)"/>
<path d="" fill="#469AF0" transform="translate(0,0)"/>
<path d="" fill="#499BEA" transform="translate(0,0)"/>
<path d="" fill="#489EF3" transform="translate(0,0)"/>
<path d="" fill="#459FF5" transform="translate(0,0)"/>
<path d="" fill="#44A0F5" transform="translate(0,0)"/>
<path d="" fill="#4597F1" transform="translate(0,0)"/>
<path d="" fill="#4AA1F2" transform="translate(0,0)"/>
<path d="" fill="#419AEF" transform="translate(0,0)"/>
<path d="" fill="#499EF2" transform="translate(0,0)"/>
<path d="" fill="#449FF2" transform="translate(0,0)"/>
<path d="" fill="#48A0F1" transform="translate(0,0)"/>
<path d="" fill="#489DEF" transform="translate(0,0)"/>
<path d="" fill="#459CF2" transform="translate(0,0)"/>
<path d="" fill="#439CF6" transform="translate(0,0)"/>
<path d="" fill="#459EF5" transform="translate(0,0)"/>
<path d="" fill="#489FF3" transform="translate(0,0)"/>
<path d="" fill="#489DF1" transform="translate(0,0)"/>
<path d="" fill="#479CEA" transform="translate(0,0)"/>
<path d="" fill="#449AEB" transform="translate(0,0)"/>
<path d="" fill="#469CEA" transform="translate(0,0)"/>
<path d="" fill="#469DF2" transform="translate(0,0)"/>
<path d="" fill="#449DF4" transform="translate(0,0)"/>
<path d="" fill="#48A1F5" transform="translate(0,0)"/>
<path d="" fill="#449AF1" transform="translate(0,0)"/>
<path d="" fill="#469DF1" transform="translate(0,0)"/>
<path d="" fill="#469DF5" transform="translate(0,0)"/>
<path d="" fill="#4799EF" transform="translate(0,0)"/>
<path d="" fill="#4E97E2" transform="translate(0,0)"/>
<path d="" fill="#489DED" transform="translate(0,0)"/>
<path d="" fill="#4A9EF0" transform="translate(0,0)"/>
<path d="" fill="#499DEF" transform="translate(0,0)"/>
<path d="" fill="#469BF3" transform="translate(0,0)"/>
<path d="" fill="#429DF4" transform="translate(0,0)"/>
<path d="" fill="#459EF5" transform="translate(0,0)"/>
<path d="" fill="#44A0F5" transform="translate(0,0)"/>
<path d="" fill="#479FF4" transform="translate(0,0)"/>
<path d="" fill="#4CA3F7" transform="translate(0,0)"/>
<path d="" fill="#4A9CEB" transform="translate(0,0)"/>
<path d="" fill="#469CF3" transform="translate(0,0)"/>
<path d="" fill="#479AEB" transform="translate(0,0)"/>
<path d="" fill="#449CF5" transform="translate(0,0)"/>
<path d="" fill="#4596E8" transform="translate(0,0)"/>
<path d="" fill="#459FF3" transform="translate(0,0)"/>
<path d="" fill="#489EEF" transform="translate(0,0)"/>
<path d="" fill="#489FF4" transform="translate(0,0)"/>
<path d="" fill="#489EF1" transform="translate(0,0)"/>
<path d="" fill="#449AEE" transform="translate(0,0)"/>
<path d="" fill="#469FF4" transform="translate(0,0)"/>
<path d="" fill="#489EF4" transform="translate(0,0)"/>
<path d="" fill="#449FF4" transform="translate(0,0)"/>
<path d="" fill="#49A1F2" transform="translate(0,0)"/>
<path d="" fill="#479EF0" transform="translate(0,0)"/>
<path d="" fill="#479FF1" transform="translate(0,0)"/>
<path d="" fill="#46A0F7" transform="translate(0,0)"/>
<path d="" fill="#459FF6" transform="translate(0,0)"/>
<path d="" fill="#46A0F8" transform="translate(0,0)"/>
<path d="" fill="#449DF3" transform="translate(0,0)"/>
<path d="" fill="#449FF5" transform="translate(0,0)"/>
<path d="" fill="#42A0F9" transform="translate(0,0)"/>
<path d="" fill="#409FFA" transform="translate(0,0)"/>
<path d="" fill="#459DF3" transform="translate(0,0)"/>
<path d="" fill="#419FF7" transform="translate(0,0)"/>
<path d="" fill="#449AEE" transform="translate(0,0)"/>
<path d="" fill="#409EFA" transform="translate(0,0)"/>
<path d="" fill="#469CF2" transform="translate(0,0)"/>
<path d="" fill="#499CED" transform="translate(0,0)"/>
<path d="" fill="#469CF1" transform="translate(0,0)"/>
<path d="" fill="#489EEF" transform="translate(0,0)"/>
<path d="" fill="#479DF1" transform="translate(0,0)"/>
<path d="" fill="#4899EA" transform="translate(0,0)"/>
<path d="" fill="#479EF2" transform="translate(0,0)"/>
<path d="" fill="#4B9FF0" transform="translate(0,0)"/>
<path d="" fill="#4B9DF0" transform="translate(0,0)"/>
<path d="" fill="#4C9EEE" transform="translate(0,0)"/>
<path d="" fill="#4B9EEE" transform="translate(0,0)"/>
<path d="" fill="#489FF0" transform="translate(0,0)"/>
<path d="" fill="#489BF1" transform="translate(0,0)"/>
<path d="" fill="#4B9FED" transform="translate(0,0)"/>
<path d="" fill="#489DEF" transform="translate(0,0)"/>
<path d="" fill="#4E9EE8" transform="translate(0,0)"/>
<path d="" fill="#479EF0" transform="translate(0,0)"/>
<path d="" fill="#479CEC" transform="translate(0,0)"/>
<path d="" fill="#4B9FEF" transform="translate(0,0)"/>
<path d="" fill="#499FF2" transform="translate(0,0)"/>
<path d="" fill="#4B9FEF" transform="translate(0,0)"/>
<path d="" fill="#44A0F6" transform="translate(0,0)"/>
<path d="" fill="#3B9CF9" transform="translate(0,0)"/>
<path d="" fill="#3D9DF8" transform="translate(0,0)"/>
<path d="" fill="#3D9DF8" transform="translate(0,0)"/>
<path d="" fill="#3A9CF9" transform="translate(0,0)"/>
<path d="" fill="#399CF8" transform="translate(0,0)"/>
<path d="" fill="#3D9CF9" transform="translate(0,0)"/>
<path d="" fill="#3D9CF8" transform="translate(0,0)"/>
<path d="" fill="#3C9DFA" transform="translate(0,0)"/>
<path d="" fill="#3F9DF9" transform="translate(0,0)"/>
<path d="" fill="#409FF7" transform="translate(0,0)"/>
<path d="" fill="#419DF6" transform="translate(0,0)"/>
<path d="" fill="#3D9DF6" transform="translate(0,0)"/>
<path d="" fill="#3E9DF7" transform="translate(0,0)"/>
<path d="" fill="#3F9FFB" transform="translate(0,0)"/>
<path d="" fill="#42A0F8" transform="translate(0,0)"/>
<path d="" fill="#3E9BFA" transform="translate(0,0)"/>
<path d="" fill="#3F9AF5" transform="translate(0,0)"/>
<path d="" fill="#449EF4" transform="translate(0,0)"/>
<path d="" fill="#439FF6" transform="translate(0,0)"/>
<path d="" fill="#419FF9" transform="translate(0,0)"/>
<path d="" fill="#409DFA" transform="translate(0,0)"/>
<path d="" fill="#3F9EF9" transform="translate(0,0)"/>
<path d="" fill="#419BF4" transform="translate(0,0)"/>
<path d="" fill="#449EF6" transform="translate(0,0)"/>
<path d="" fill="#44A0F9" transform="translate(0,0)"/>
<path d="" fill="#419FF9" transform="translate(0,0)"/>
<path d="" fill="#419DF7" transform="translate(0,0)"/>
<path d="" fill="#4299F5" transform="translate(0,0)"/>
<path d="" fill="#429EF7" transform="translate(0,0)"/>
<path d="" fill="#489AE5" transform="translate(0,0)"/>
<path d="" fill="#3F9EF7" transform="translate(0,0)"/>
<path d="" fill="#439FF6" transform="translate(0,0)"/>
<path d="" fill="#419EF5" transform="translate(0,0)"/>
<path d="" fill="#40A0FB" transform="translate(0,0)"/>
<path d="" fill="#469FF2" transform="translate(0,0)"/>
<path d="" fill="#439CF4" transform="translate(0,0)"/>
<path d="" fill="#409FF9" transform="translate(0,0)"/>
<path d="" fill="#449DF1" transform="translate(0,0)"/>
<path d="" fill="#3F9DF6" transform="translate(0,0)"/>
<path d="" fill="#439DF8" transform="translate(0,0)"/>
<path d="" fill="#409DF8" transform="translate(0,0)"/>
<path d="" fill="#419EF6" transform="translate(0,0)"/>
<path d="" fill="#419FFA" transform="translate(0,0)"/>
<path d="" fill="#3F9FF9" transform="translate(0,0)"/>
<path d="" fill="#429DF8" transform="translate(0,0)"/>
<path d="" fill="#40A1FC" transform="translate(0,0)"/>
<path d="" fill="#41A0FA" transform="translate(0,0)"/>
<path d="" fill="#43A0FE" transform="translate(0,0)"/>
<path d="" fill="#459DEE" transform="translate(0,0)"/>
<path d="" fill="#42A2F7" transform="translate(0,0)"/>
<path d="" fill="#3F9DF7" transform="translate(0,0)"/>
<path d="" fill="#419EF8" transform="translate(0,0)"/>
<path d="" fill="#409FF9" transform="translate(0,0)"/>
<path d="" fill="#3F9AF7" transform="translate(0,0)"/>
<path d="" fill="#3F9DF7" transform="translate(0,0)"/>
<path d="" fill="#429DF7" transform="translate(0,0)"/>
<path d="" fill="#409EF9" transform="translate(0,0)"/>
<path d="" fill="#439DF9" transform="translate(0,0)"/>
<path d="" fill="#3F9FFD" transform="translate(0,0)"/>
<path d="" fill="#429DF7" transform="translate(0,0)"/>
<path d="" fill="#43A1F6" transform="translate(0,0)"/>
<path d="" fill="#3F9EFC" transform="translate(0,0)"/>
<path d="" fill="#449EF2" transform="translate(0,0)"/>
<path d="" fill="#409FF6" transform="translate(0,0)"/>
<path d="" fill="#409EF7" transform="translate(0,0)"/>
<path d="" fill="#44A1FB" transform="translate(0,0)"/>
<path d="" fill="#3C9DFA" transform="translate(0,0)"/>
<path d="" fill="#419FFA" transform="translate(0,0)"/>
<path d="" fill="#44A1F9" transform="translate(0,0)"/>
<path d="" fill="#41A0F8" transform="translate(0,0)"/>
<path d="" fill="#42A1FA" transform="translate(0,0)"/>
<path d="" fill="#3F9FFB" transform="translate(0,0)"/>
<path d="" fill="#409EFC" transform="translate(0,0)"/>
<path d="" fill="#42A1FB" transform="translate(0,0)"/>
<path d="" fill="#40A0F8" transform="translate(0,0)"/>
<path d="" fill="#419FFB" transform="translate(0,0)"/>
<path d="" fill="#409CFC" transform="translate(0,0)"/>
<path d="" fill="#43A0F8" transform="translate(0,0)"/>
<path d="" fill="#3E9FF9" transform="translate(0,0)"/>
<path d="" fill="#41A1FA" transform="translate(0,0)"/>
<path d="" fill="#42A1F6" transform="translate(0,0)"/>
<path d="" fill="#429CF3" transform="translate(0,0)"/>
<path d="" fill="#439FFA" transform="translate(0,0)"/>
<path d="" fill="#409EF9" transform="translate(0,0)"/>
<path d="" fill="#449EF8" transform="translate(0,0)"/>
<path d="" fill="#409DF6" transform="translate(0,0)"/>
<path d="" fill="#3E9CF8" transform="translate(0,0)"/>
<path d="" fill="#429FF4" transform="translate(0,0)"/>
<path d="" fill="#3E9CF9" transform="translate(0,0)"/>
<path d="" fill="#409FFA" transform="translate(0,0)"/>
<path d="" fill="#3F9CF8" transform="translate(0,0)"/>
<path d="" fill="#3F9CF8" transform="translate(0,0)"/>
<path d="" fill="#419FF8" transform="translate(0,0)"/>
<path d="" fill="#43A0FA" transform="translate(0,0)"/>
<path d="" fill="#3E9FFA" transform="translate(0,0)"/>
<path d="" fill="#449FF8" transform="translate(0,0)"/>
<path d="" fill="#449FF9" transform="translate(0,0)"/>
<path d="" fill="#3E9EFA" transform="translate(0,0)"/>
<path d="" fill="#3F9CF5" transform="translate(0,0)"/>
<path d="" fill="#3D9CF9" transform="translate(0,0)"/>
<path d="" fill="#3C9AF6" transform="translate(0,0)"/>
<path d="" fill="#3F9CF9" transform="translate(0,0)"/>
<path d="" fill="#3F9DF9" transform="translate(0,0)"/>
<path d="" fill="#3F9CF7" transform="translate(0,0)"/>
<path d="" fill="#459EF3" transform="translate(0,0)"/>
<path d="" fill="#469EF1" transform="translate(0,0)"/>
<path d="" fill="#3C9CF6" transform="translate(0,0)"/>
<path d="" fill="#429CF8" transform="translate(0,0)"/>
<path d="" fill="#409CF3" transform="translate(0,0)"/>
<path d="" fill="#3D9CF8" transform="translate(0,0)"/>
<path d="" fill="#409DFB" transform="translate(0,0)"/>
<path d="" fill="#3D9DF7" transform="translate(0,0)"/>
<path d="" fill="#43A0F5" transform="translate(0,0)"/>
<path d="" fill="#429DF5" transform="translate(0,0)"/>
<path d="" fill="#4997E0" transform="translate(0,0)"/>
<path d="" fill="#43A0F9" transform="translate(0,0)"/>
<path d="" fill="#449BF0" transform="translate(0,0)"/>
<path d="" fill="#49A0EF" transform="translate(0,0)"/>
<path d="" fill="#479EF4" transform="translate(0,0)"/>
<path d="" fill="#449EF3" transform="translate(0,0)"/>
<path d="" fill="#459CEE" transform="translate(0,0)"/>
<path d="" fill="#459DF0" transform="translate(0,0)"/>
<path d="" fill="#469CEE" transform="translate(0,0)"/>
<path d="" fill="#459AEB" transform="translate(0,0)"/>
<path d="" fill="#4599E4" transform="translate(0,0)"/>
<path d="" fill="#479BE8" transform="translate(0,0)"/>
<path d="" fill="#489BEC" transform="translate(0,0)"/>
<path d="" fill="#4C9BEA" transform="translate(0,0)"/>
<path d="" fill="#479AEA" transform="translate(0,0)"/>
<path d="" fill="#479CEA" transform="translate(0,0)"/>
<path d="" fill="#489BEB" transform="translate(0,0)"/>
<path d="" fill="#489CEB" transform="translate(0,0)"/>
<path d="" fill="#4B9DEC" transform="translate(0,0)"/>
<path d="" fill="#469BED" transform="translate(0,0)"/>
</svg>
